<svg width="2977" height="798" viewBox="0 0 2977 798" fill="none" xmlns="http://www.w3.org/2000/svg">
<path d="M2293.16 103.748C2277.81 103.748 2261.83 110.148 2249.31 121.308C2220.72 145.641 2205.21 188.948 2195.95 214.828C2194.21 219.654 2192.56 224.294 2191.28 227.348C2188.88 227.628 2185.03 227.828 2181.75 228.001C2163.32 228.948 2129.03 230.721 2099.95 251.228C2062.24 277.814 2041.55 316.201 2038.35 365.414C2022.99 368.321 2006.72 372.241 1988 377.561C1978.47 369.441 1960.92 368.588 1941.07 367.628C1933.36 367.254 1925.39 366.854 1917.65 366.041C1915.64 365.828 1913.55 365.721 1911.43 365.721C1906.91 365.721 1902.15 366.201 1897.23 367.161C1890.24 359.681 1882.65 353.481 1875.85 347.908C1866.03 339.868 1857.43 332.841 1855.85 326.054C1860.23 315.054 1860.99 297.281 1857.85 277.681C1854.28 255.214 1846.25 235.774 1835.85 224.334C1834.92 223.308 1833.73 222.534 1832.41 222.094C1830.63 221.494 1828.77 221.201 1826.92 221.201C1815.71 221.188 1805.25 231.681 1794.96 253.254C1787.63 268.628 1780.59 289.148 1775.16 311.028C1771.55 325.534 1774.85 341.214 1782.44 360.348C1781.95 359.708 1781.44 359.068 1780.93 358.428C1764.8 338.268 1738.32 322.334 1716.21 319.401C1712.15 318.041 1707.71 317.308 1703.63 317.308C1696.89 317.308 1691.73 319.281 1688.71 323.028C1687.39 324.654 1686.53 326.534 1686.19 328.534C1674.64 338.428 1661.55 343.268 1632.83 353.894C1613.64 360.988 1595.09 379.801 1583.2 404.214C1573.41 424.281 1563.27 457.721 1570.52 503.041C1571.36 508.308 1572.4 513.441 1573.71 518.641C1572.08 521.854 1570.51 525.041 1568.97 528.134C1558.88 548.574 1550.17 566.241 1531.11 576.374C1524 579.761 1520.55 586.174 1522.08 593.174C1524.53 604.294 1540.19 615.534 1569.63 615.534C1583.07 615.534 1596.11 615.361 1607.51 613.828C1601.89 638.614 1602.24 660.748 1608.51 681.161C1609.2 683.428 1610.84 685.268 1613.01 686.214C1615.11 687.134 1617.56 687.588 1620.49 687.588C1635.49 687.588 1666.21 674.748 1683.68 663.254C1697.55 654.134 1716.05 638.481 1726.95 624.628C1734.88 625.241 1742.57 625.788 1750.04 626.321C1776.65 628.214 1801.79 630.014 1809.51 632.801C1813.17 634.108 1816.84 635.468 1820.73 636.908C1850.93 648.054 1888.52 661.921 1943.09 664.321C1952.15 664.721 1962.89 665.428 1975.35 666.228C2005.55 668.188 2043.15 670.628 2084.2 670.628C2150.84 670.628 2205.29 664.134 2250.65 650.788C2315.08 631.828 2357.8 608.708 2384.4 578.308C2397.45 583.014 2417.31 587.734 2444.27 587.734C2467.77 587.734 2493.05 584.094 2519.43 576.921C2549.21 568.814 2575.03 564.868 2598.32 564.868C2638.56 564.868 2663.96 576.828 2688.53 588.401C2708.84 597.961 2728.03 607.001 2753.65 608.894C2757.39 609.174 2761.31 609.308 2765.32 609.308C2799.76 609.308 2843.44 598.868 2885.15 580.641C2926.48 562.588 2959.05 540.001 2974.49 518.708C2975.77 516.948 2976.29 514.748 2975.92 512.601C2975.56 510.454 2974.36 508.548 2972.57 507.294C2957.28 496.641 2937.71 496.201 2910.61 495.614C2871.07 494.734 2816.91 493.534 2739.73 459.894C2705.69 445.068 2673.87 437.854 2642.43 437.854C2615.17 437.854 2588.2 443.414 2559.95 454.854C2535.28 464.841 2512.77 477.921 2491.01 490.574C2464.43 506.028 2439.08 520.761 2412.67 528.134C2415.49 519.428 2417.67 510.188 2419.24 500.214C2423.79 471.308 2423.96 427.428 2400.56 378.921C2411.12 377.308 2419.2 374.161 2424.16 367.481C2432.49 356.294 2428.89 340.628 2422.37 312.174L2421.44 308.148C2410.83 261.734 2413.48 188.268 2421.04 171.961C2424.32 164.868 2428.68 157.134 2432.52 150.308C2441.21 134.854 2445.01 127.774 2443.61 121.788C2442.95 118.908 2440.77 116.614 2437.93 115.814C2428.88 113.254 2420.15 111.961 2411.95 111.961C2393.75 111.961 2377.99 118.174 2365.12 130.441C2352.91 142.094 2346 156.841 2342.36 167.174C2337.15 181.948 2330.97 207.921 2327.01 231.814C2324.39 247.548 2323 260.468 2322.81 270.481C2308.57 262.148 2290.97 255.668 2273.01 252.308C2274.01 227.721 2283.03 209.081 2291.05 192.481C2295.2 183.908 2299.11 175.828 2301.57 167.681C2305.99 153.028 2312.85 146.988 2318.37 142.134C2322.95 138.121 2328.12 133.561 2327.61 125.814C2327.55 124.894 2327.33 123.988 2326.96 123.134C2321.72 111.001 2309.08 103.748 2293.16 103.748ZM2293.16 111.854C2305.13 111.854 2315.33 116.654 2319.52 126.348C2320.13 135.601 2302.39 136.921 2293.81 165.334C2286.49 189.614 2264 215.828 2264.84 259.188C2293.61 263.214 2318.63 275.081 2332.87 287.494C2325.51 271.641 2340.21 197.628 2350 169.868C2358.15 146.788 2376.45 120.054 2411.95 120.068C2419.15 120.068 2427.05 121.161 2435.72 123.614C2436.95 128.894 2422.25 150.041 2413.68 168.548C2405.11 187.054 2402.65 262.388 2413.55 309.961C2424.43 357.534 2428.37 369.428 2387.96 372.081C2390.41 377.361 2422.25 428.908 2411.23 498.948C2408.93 513.574 2405.19 526.988 2399.72 539.348C2477.76 526.161 2540.72 445.961 2642.43 445.961C2670.47 445.961 2701.45 452.054 2736.49 467.334C2866.29 523.921 2934.25 490.454 2967.93 513.948C2937.71 555.641 2836.28 601.214 2765.32 601.214C2761.53 601.214 2757.84 601.081 2754.24 600.814C2699.37 596.748 2673.37 556.761 2598.32 556.761C2576.23 556.761 2549.88 560.228 2517.29 569.094C2488.69 576.881 2464.37 579.628 2444.27 579.628C2413.8 579.628 2393.05 573.308 2381.91 568.654C2356.67 600.081 2314.52 623.534 2248.36 643.014C2196.49 658.281 2137.8 662.521 2084.2 662.521C2026.44 662.521 1974.57 657.601 1943.45 656.228C1883.44 653.588 1845.32 637.068 1812.25 625.174C1800.85 621.068 1764.48 619.454 1723.11 616.201C1713.87 629.468 1694.49 646.441 1679.23 656.481C1662.71 667.348 1633.43 679.481 1620.49 679.481C1618.76 679.481 1617.32 679.254 1616.25 678.788C1608.13 652.334 1611.88 626.094 1618.64 603.294C1606.11 607.001 1589.33 607.428 1569.63 607.428C1534.72 607.428 1521.87 589.574 1534.72 583.628C1560.28 570.148 1568.99 545.281 1582.33 519.588C1580.81 513.948 1579.52 508.028 1578.52 501.761C1566.44 426.214 1603.47 373.401 1635.61 361.508C1667.51 349.708 1680.91 344.748 1694.37 332.068L1694.23 331.868C1693.28 327.388 1697.8 325.414 1703.63 325.414C1707.04 325.414 1710.91 326.094 1714.37 327.334C1733.11 329.534 1758.49 343.361 1774.6 363.481C1800.51 395.868 1802.24 427.348 1824.95 431.748C1797.83 374.094 1776.41 339.548 1783.01 312.974C1792.56 274.601 1810.2 229.294 1826.91 229.308C1827.89 229.308 1828.88 229.454 1829.85 229.788C1850.52 252.508 1856.63 306.468 1847.52 324.881C1848.55 342.588 1875.35 353.841 1894.35 376.108C1900.12 374.654 1905.88 373.828 1911.43 373.828C1913.24 373.828 1915.04 373.921 1916.8 374.108C1946.19 377.214 1977.87 374.228 1985.33 386.761C2005.65 380.868 2025.56 375.801 2046.13 372.241C2047.89 318.921 2069.99 282.268 2104.61 257.854C2143.04 230.761 2190.8 238.694 2197.07 234.068C2203.8 222.174 2219.11 157.574 2254.63 127.428C2266.2 117.094 2280.64 111.854 2293.16 111.854" fill="#242424"/>
<path d="M1839.04 462.934C1805.84 385.934 1775.29 344.041 1783.01 312.974C1793.12 272.334 1812.31 223.934 1829.85 229.788C1850.52 252.508 1856.63 306.468 1847.52 324.881C1849.04 350.974 1906.51 363.054 1912.52 416.988C1849.08 427.054 1839.04 462.934 1839.04 462.934" fill="#FFCC88"/>
<path d="M1985.84 303.881C1985.84 350.601 1947.96 388.481 1901.24 388.481C1854.52 388.481 1816.64 350.601 1816.64 303.881C1816.64 257.161 1854.52 219.281 1901.24 219.281C1947.96 219.281 1985.84 257.161 1985.84 303.881Z" fill="#242424"/>
<path d="M1888.25 366.054C1908.88 362.508 1928.68 352.974 1945.51 338.494L1943.27 335.894C1911.87 362.921 1870.57 371.094 1835.97 357.708C1837.49 359.561 1839.12 361.334 1840.8 363.054C1850.35 366.054 1860.35 367.588 1870.51 367.588C1876.39 367.588 1882.32 367.081 1888.25 366.054" fill="#F46414"/>
<path d="M1849.97 343.294C1855.84 343.294 1861.77 342.788 1867.71 341.761C1888.33 338.214 1908.13 328.681 1924.96 314.201L1922.73 311.601C1893.57 336.708 1855.89 345.534 1822.95 335.948C1823.51 337.334 1824.11 338.694 1824.75 340.041C1832.92 342.188 1841.37 343.294 1849.97 343.294Z" fill="#F46414"/>
<path d="M1858 322.748C1878.63 319.201 1898.43 309.681 1915.25 295.188L1913.01 292.588C1885.21 316.521 1849.67 325.654 1817.87 318.148C1818.08 319.414 1818.31 320.668 1818.59 321.908C1825.65 323.481 1832.91 324.281 1840.25 324.281C1846.12 324.281 1852.05 323.774 1858 322.748Z" fill="#F46414"/>
<path d="M1954.88 349.868L1952.64 347.268C1922.33 373.348 1882.84 381.868 1849.03 370.414C1851.83 372.628 1854.77 374.668 1857.84 376.508C1865.03 378.134 1872.4 378.961 1879.88 378.961C1885.75 378.961 1891.68 378.454 1897.63 377.441C1918.25 373.881 1938.04 364.361 1954.88 349.868Z" fill="#F46414"/>
<path d="M1840.25 332.361C1846.12 332.361 1852.05 331.854 1858 330.828C1878.63 327.281 1898.43 317.748 1915.25 303.268L1913.01 300.668C1885.76 324.121 1851.07 333.361 1819.76 326.641C1820.12 327.934 1820.51 329.201 1820.92 330.454C1827.24 331.708 1833.71 332.361 1840.25 332.361" fill="#F46414"/>
<path d="M1908.12 388.188C1928.12 384.428 1947.29 375.054 1963.67 360.974L1963.71 360.934L1961.48 358.334C1938.15 378.414 1909.36 388.081 1881.91 386.241C1888.12 387.694 1894.59 388.481 1901.24 388.481C1903.56 388.481 1905.84 388.361 1908.12 388.188" fill="#F46414"/>
<path d="M1816.75 308.001C1816.8 309.214 1816.89 310.428 1817.01 311.641C1824.07 313.214 1831.31 314.001 1838.64 314.001C1844.52 314.001 1850.45 313.494 1856.39 312.481C1877.01 308.934 1896.81 299.401 1913.64 284.921L1911.4 282.321C1883.75 306.121 1848.43 315.294 1816.75 308.001" fill="#F46414"/>
<path d="M1828.72 347.468C1829.71 349.108 1830.76 350.694 1831.85 352.254C1841.88 355.601 1852.43 357.308 1863.16 357.308C1869.03 357.308 1874.96 356.801 1880.91 355.788C1901.53 352.241 1921.33 342.708 1938.16 328.214L1935.92 325.628C1904.55 352.628 1863.32 360.801 1828.72 347.468Z" fill="#F46414"/>
<path d="M1824.79 340.134C1825.49 341.614 1826.23 343.068 1827.01 344.494C1836.32 347.334 1846.01 348.774 1855.88 348.774C1861.75 348.774 1867.68 348.268 1873.63 347.241C1894.25 343.694 1914.04 334.174 1930.88 319.681L1928.64 317.081C1898.27 343.228 1858.67 351.708 1824.79 340.134" fill="#F46414"/>
<path d="M1901.24 219.281C1891.36 219.281 1881.89 220.988 1873.08 224.108C1865.87 238.761 1861.85 254.948 1861.85 271.961C1861.85 319.481 1893.08 360.534 1938.35 379.921C1966.47 366.174 1985.84 337.294 1985.84 303.881C1985.84 257.161 1947.96 219.281 1901.24 219.281" fill="#242424"/>
<path d="M1942.81 230.214C1936.41 243.894 1933.51 263.014 1933.51 277.334C1933.51 298.174 1940.17 318.414 1952.8 335.868C1957.57 342.481 1963.13 348.574 1969.33 354.081C1970.04 353.134 1970.71 352.174 1971.36 351.201C1949.77 331.774 1936.93 305.268 1936.93 277.334C1936.93 263.948 1939.73 245.174 1945.79 231.961C1944.8 231.361 1943.81 230.774 1942.81 230.214" fill="#F46414"/>
<path d="M1954.29 238.014C1949.12 251.241 1946.73 268.068 1946.73 281.014C1946.73 301.854 1953.41 322.094 1966.03 339.548C1968.24 342.614 1970.63 345.574 1973.17 348.401C1973.83 347.348 1974.45 346.281 1975.07 345.201C1959.28 327.068 1950.17 304.548 1950.17 281.014C1950.17 269.148 1952.37 253.068 1957.08 240.361C1956.17 239.561 1955.24 238.774 1954.29 238.014Z" fill="#F46414"/>
<path d="M1940.55 378.801C1941.79 378.148 1943.01 377.454 1944.21 376.748C1900.43 356.521 1872.33 315.774 1872.33 271.961C1872.33 257.081 1875.4 236.321 1882.04 221.508C1880.63 221.828 1879.21 222.201 1877.81 222.601C1871.69 237.574 1868.91 257.081 1868.91 271.961C1868.91 295.281 1876.37 317.948 1890.49 337.494C1903.03 354.841 1920.25 369.001 1940.55 378.801" fill="#F46414"/>
<path d="M1910.81 269.668C1910.81 292.988 1918.28 315.654 1932.4 335.201C1940.24 346.041 1949.92 355.641 1961.03 363.708C1961.85 362.881 1962.67 362.041 1963.47 361.174C1932.88 338.988 1914.24 305.361 1914.24 269.668C1914.24 255.721 1916.93 236.588 1922.75 222.054C1921.63 221.761 1920.49 221.494 1919.36 221.254C1913.51 236.094 1910.81 255.081 1910.81 269.668" fill="#F46414"/>
<path d="M1906.36 219.454C1899.99 234.534 1897.08 254.494 1897.08 269.668C1897.08 292.988 1904.55 315.654 1918.67 335.201C1928.32 348.534 1940.73 360.001 1955.19 369.041C1956.12 368.268 1957.03 367.481 1957.92 366.668C1922.52 344.788 1900.51 308.441 1900.51 269.668C1900.51 254.961 1903.51 234.508 1910 219.734C1908.8 219.614 1907.59 219.521 1906.36 219.454Z" fill="#F46414"/>
<path d="M1892.23 219.774C1885.25 235.068 1882.08 256.121 1882.08 271.961C1882.08 295.281 1889.55 317.948 1903.68 337.494C1914.75 352.814 1929.48 365.654 1946.75 375.188C1947.84 374.494 1948.91 373.774 1949.96 373.028C1910.45 351.788 1885.52 313.241 1885.52 271.961C1885.52 256.388 1888.88 234.348 1896.2 219.454C1894.87 219.534 1893.55 219.641 1892.23 219.774" fill="#F46414"/>
<path d="M1922.13 274.668C1922.13 295.508 1928.8 315.748 1941.41 333.201C1948.23 342.628 1956.61 350.974 1966.2 358.054C1966.93 357.174 1967.65 356.268 1968.36 355.361C1941.75 335.614 1925.56 306.028 1925.56 274.668C1925.56 260.348 1928.76 239.868 1935.72 226.628C1934.68 226.161 1933.61 225.721 1932.56 225.294C1925.37 239.081 1922.13 259.534 1922.13 274.668Z" fill="#F46414"/>
<path d="M2047.05 401.254C2040.63 331.868 2064.03 286.468 2104.61 257.854C2143.04 230.761 2190.8 238.694 2197.07 234.068C2203.8 222.174 2219.11 157.574 2254.63 127.428C2277.28 107.188 2310.96 106.521 2319.52 126.348C2320.13 135.601 2302.39 136.921 2293.81 165.334C2285.24 193.748 2255.85 224.814 2267.48 282.961C2204.41 344.414 2104.61 421.068 2102.16 419.748C2069.11 415.121 2047.05 401.254 2047.05 401.254" fill="#FFCC88"/>
<path d="M1585.55 513.588C1570.24 541.334 1562.28 569.094 1534.72 583.628C1521.87 589.574 1534.72 607.428 1569.63 607.428C1604.52 607.428 1630.24 606.094 1639.43 587.601C1628.4 540.681 1585.55 513.588 1585.55 513.588" fill="#FFCC88"/>
<path d="M1694.69 331.774C1681.12 344.668 1667.76 349.614 1635.61 361.508C1603.47 373.401 1566.44 426.214 1578.52 501.761C1591.01 579.948 1645.41 608.974 1696.84 613.934C1748.27 618.894 1798.48 620.214 1812.25 625.174C1845.32 637.068 1883.44 653.588 1943.45 656.228C2003.45 658.868 2140.6 674.734 2248.36 643.014C2356.13 611.294 2400.21 569.001 2411.23 498.948C2422.25 428.908 2390.41 377.361 2387.96 372.081C2428.37 369.428 2424.43 357.534 2413.55 309.961C2402.65 262.388 2405.11 187.054 2413.68 168.548C2422.25 150.041 2436.95 128.894 2435.72 123.614C2384.29 109.081 2359.8 142.121 2350 169.868C2340.2 197.628 2325.51 271.628 2332.87 287.494C2301.03 259.734 2215.31 234.628 2154.08 294.108C2092.84 353.574 2112.44 393.108 2112.44 393.108C2032.92 389.014 1961.69 400.561 1909.95 412.121C1862.88 422.628 1831.95 433.134 1825.53 431.868C1802.27 427.908 1800.73 396.148 1774.6 363.481C1751.33 334.414 1708.69 318.468 1694.69 331.774Z" fill="#FFCC88"/>
<path d="M1670.45 382.774C1659.85 395.774 1667.28 406.774 1684.88 403.401C1669.41 401.681 1667.85 391.294 1670.45 382.774Z" fill="#242424"/>
<path d="M1850.96 426.774C1954.75 400.334 2018.83 366.668 2109.72 366.668C2107.77 383.481 2114.13 394.241 2114.13 394.241C1953.16 423.948 1850.96 426.774 1850.96 426.774Z" fill="#FFE3C2"/>
<path d="M2112.72 381.228L2105.8 380.814C2105.8 343.734 2123.64 319.708 2152.43 292.948C2173.51 273.348 2210.16 246.521 2269.57 252.214L2268.55 259.654C2210.52 254.081 2176.88 278.641 2156.33 297.734C2127.49 324.548 2112.72 345.241 2112.72 381.228Z" fill="#242424"/>
<path d="M1694.23 331.868C1698.2 337.361 1702.95 339.548 1706.83 337.388C1709.55 335.881 1714.99 327.561 1714.99 327.561C1705.55 323.934 1692.69 324.588 1694.23 331.868Z" fill="#242424"/>
<path d="M1714.99 327.561C1728.2 330.908 1726.76 341.588 1724.87 355.601C1732.65 344.694 1733.6 336.188 1729.29 331.308C1721.93 328.228 1714.99 327.561 1714.99 327.561" fill="#242424"/>
<path d="M1633.2 564.174C1621.71 592.121 1602.88 635.174 1616.25 678.788C1625.33 682.761 1660.49 668.801 1679.23 656.481C1698.81 643.601 1725.15 619.321 1728.2 606.094C1728.81 590.241 1652.09 518.268 1633.2 564.174" fill="#FFCC88"/>
<path d="M1614.61 679.294C1601.49 636.508 1602.47 599.094 1630.48 566.294L1631.63 563.521L1634.79 564.828L1633.64 567.601C1622.29 595.108 1605.13 636.681 1617.89 678.281L1614.61 679.294Z" fill="#242424"/>
<path d="M1623.27 587.694C1602.99 571.454 1585.05 551.601 1577.03 523.454L1582.33 519.588C1590.16 547.041 1605.69 569.228 1625.41 585.014L1623.27 587.694" fill="#242424"/>
<path d="M1639.43 656.481C1636.67 649.388 1647.69 605.774 1659.32 599.988C1659.32 599.988 1692.69 606.601 1696.36 614.028C1696.36 619.974 1654.12 656.481 1639.43 656.481" fill="#FF7312"/>
<path d="M2379.65 541.161C2489.75 540.014 2563.61 391.961 2736.49 467.334C2866.29 523.921 2934.25 490.454 2967.93 513.948C2936.09 557.868 2825.27 606.081 2754.25 600.814C2683.23 595.548 2660.57 530.108 2517.29 569.094C2420.08 595.548 2372.19 563.814 2372.19 563.814L2379.65 541.161" fill="#FFCC88"/>
<path d="M1669.68 445.054C1668.59 444.801 1642.49 438.481 1630.13 412.134L1633.24 410.681C1644.87 435.481 1670.2 441.654 1670.45 441.708L1669.68 445.054" fill="#242424"/>
<path d="M1671.19 447.454L1669.23 447.001C1668.09 446.734 1641.08 440.188 1628.32 412.988L1627.47 411.174L1634.2 408.014L1635.04 409.828C1646.19 433.574 1670.68 439.708 1670.92 439.761L1672.85 440.228L1671.19 447.454Z" fill="#242424"/>
<path d="M2281.73 633.174C2276.36 650.268 2260.44 656.961 2236.96 658.748C2184.33 662.761 2108.27 622.974 2072.08 549.414C2051.69 507.974 2028.77 485.641 1999.97 479.134C1974.28 473.321 1947.16 480.828 1918.45 488.788C1904.55 492.641 1890.16 496.628 1875.47 499.201C1872.73 499.681 1870.05 499.921 1867.41 499.921C1832.87 499.908 1806.28 460.388 1798.07 420.068C1791.75 389.068 1795.35 351.241 1822.08 333.734C1821.67 332.668 1821.29 331.588 1820.93 330.494C1810.63 337.108 1802.79 346.934 1797.85 359.628C1791.25 376.628 1790.13 398.334 1794.71 420.748C1803.2 462.481 1831.04 503.348 1867.41 503.348C1870.24 503.348 1873.13 503.094 1876.05 502.588C1890.91 499.974 1905.37 495.974 1919.37 492.094C1976.36 476.294 2025.57 462.654 2069 550.934C2091.23 596.094 2124.24 622.708 2148.03 637.068C2175.08 653.401 2204.36 662.454 2229.63 662.454C2232.2 662.454 2234.75 662.361 2237.23 662.174C2262.19 660.268 2283.35 648.761 2289.17 630.241L2281.73 633.174" fill="#242424"/>
<path d="M1879.75 542.001C1896.32 524.854 1903.63 526.148 1889.84 513.254C1844.84 472.614 1831.99 442.881 1831.99 425.041C1831.99 406.201 1880.88 370.308 1916.8 374.108C1948.03 377.401 1981.85 373.828 1986.45 389.308C1976.35 421.014 1950.89 433.574 1932.09 442.881C1986.28 454.774 2023.47 482.534 2027.37 494.428C2034.04 523.174 1993.63 589.574 1960.56 600.481C1927.51 611.388 1857.71 564.801 1879.75 542.001" fill="#FFCC88"/>
<path d="M2011.61 552.934L2008.68 551.174C2022.05 528.974 2028.59 507.428 2025.72 494.881C2022.01 483.948 1985.61 456.388 1931.72 444.548L1926.96 443.508L1931.45 441.281C1949.71 432.241 1974.67 419.881 1984.65 389.308C1981.12 379.401 1962.32 378.481 1940.6 377.428C1932.75 377.054 1924.64 376.654 1916.63 375.814C1893.08 373.321 1864.67 388.108 1848.23 402.894C1839 411.201 1833.71 419.281 1833.71 425.041C1833.71 438.188 1841.15 466.961 1891 511.988L1888.69 514.534C1837.87 468.628 1830.27 438.761 1830.27 425.041C1830.27 418.201 1835.84 409.441 1845.93 400.348C1862.92 385.068 1892.4 369.801 1916.99 372.401C1924.91 373.241 1932.96 373.628 1940.76 374.001C1964.13 375.134 1984.32 376.121 1988.09 388.814L1988.24 389.321L1988.08 389.814C1978.52 419.841 1955.52 433.054 1937.15 442.281C1990.55 455.108 2025.21 482.374 2029 493.881L2029.04 494.041C2032.15 507.401 2025.47 529.961 2011.61 552.934" fill="#242424"/>
<path d="M2012.29 555.681L2005.93 551.854L2006.96 550.134C2020.04 528.441 2026.48 507.508 2023.8 495.441C2020.04 484.841 1984.2 458.121 1931.29 446.508L1920.97 444.241L1930.57 439.494C1948.36 430.681 1972.65 418.641 1982.52 389.374C1978.79 381.281 1960.17 380.388 1940.49 379.428C1932.57 379.041 1924.45 378.641 1916.41 377.801C1893.48 375.374 1865.69 389.881 1849.56 404.388C1840.88 412.201 1835.71 419.921 1835.71 425.041C1835.71 437.854 1843.05 466.001 1892.33 510.494L1893.81 511.841L1888.84 517.361L1887.36 516.014C1835.95 469.588 1828.27 439.094 1828.27 425.041C1828.27 417.628 1834.07 408.334 1844.6 398.868C1861.91 383.294 1892.01 367.748 1917.2 370.414C1925.08 371.241 1933.11 371.628 1940.85 372.001C1965 373.174 1985.84 374.188 1990.01 388.241L1990.33 389.334L1989.99 390.428C1980.6 419.894 1957.85 433.828 1942.81 441.641C1994.65 455.268 2027.12 481.748 2030.91 493.268L2030.97 493.508C2034.2 507.428 2027.44 530.574 2013.32 553.974L2012.29 555.681" fill="#242424"/>
<path d="M359.734 120.214C338.363 135.614 322.215 152.454 311.401 170.641C296.581 195.574 293.298 215.068 302.157 225.534C309.438 234.121 325.134 235.694 341.213 229.428C358.849 222.574 379.062 204.934 377.991 177.814C377.019 153.201 370.813 133.814 359.734 120.214V120.214ZM161.482 797.148C152.421 797.148 143.201 796.868 133.785 796.294C84.3726 793.281 47.9926 768.948 25.6569 723.974C-13.6035 644.921 0.780376 522.748 12.8485 456.961C29.4146 366.668 61.4606 272.881 90.7766 228.908C117.71 188.508 159.554 150.374 205.579 124.281C252.695 97.5611 297.966 87.3744 329.781 96.321C342.115 99.801 352.373 106.014 360.441 114.828C392.825 92.201 436.395 72.7211 490.809 56.6144C565.458 34.5077 660.653 18.5878 773.747 9.30777C966.207 -6.4789 1146.3 2.57446 1148.09 2.6678L1148.71 2.70777L1149.2 3.08108C1149.77 3.50774 1206.87 46.7344 1291.25 87.7477C1369.04 125.561 1486.6 169.174 1604.88 162.214C1694.27 156.961 1759.03 123.161 1827.6 87.3744C1932.68 32.5211 2041.33 -24.1989 2246.39 27.0678C2323.08 46.2411 2386.55 71.0544 2435.04 100.841C2473.95 124.734 2503.37 151.868 2522.52 181.494C2555.27 232.214 2546.6 272.068 2546.23 273.734C2526.95 354.574 2490 388.921 2462.39 403.508C2432.31 419.401 2407.13 416.041 2406.07 415.881L2406.64 411.921C2406.88 411.961 2431.77 415.241 2460.75 399.854C2487.55 385.614 2523.45 352.028 2542.32 272.828C2542.41 272.441 2550.97 232.708 2518.95 183.348C2489.27 137.601 2417.71 74.0144 2245.43 30.9477C2041.85 -19.9456 1933.88 36.4144 1829.45 90.921C1760.49 126.908 1695.36 160.908 1605.12 166.214C1596.57 166.721 1588.03 166.961 1579.49 166.961C1469.17 166.961 1362.05 126.628 1289.43 91.3078C1208.91 52.1611 1153.11 11.0011 1147.28 6.6411C1135.59 6.06777 960.626 -2.01223 774.035 13.3078C661.222 22.5611 566.307 38.4277 491.927 60.4544C438.082 76.401 395.011 95.6011 363.051 117.868C374.546 132.094 380.985 152.214 381.989 177.654C383.142 206.881 361.525 225.814 342.663 233.161C324.717 240.148 307.619 238.161 299.105 228.108C293.286 221.241 286.698 204.374 307.962 168.601C318.999 150.028 335.418 132.868 357.107 117.201C349.573 109.094 340.071 103.374 328.697 100.174C264.953 82.2411 150.938 145.881 94.1046 231.134C43.074 307.668 -38.1666 586.468 29.2392 722.201C50.8926 765.801 86.1486 789.388 134.027 792.308C249.421 799.334 337.229 760.881 422.151 723.681C499.941 689.614 580.379 654.388 681.511 654.388C832.355 654.388 947.451 690.094 1049 721.614C1089.41 734.148 1127.57 745.988 1164.66 754.494L1163.77 758.388C1126.53 749.854 1088.3 737.988 1047.81 725.428C946.537 694.001 831.749 658.388 681.511 658.388C581.217 658.388 501.169 693.441 423.755 727.348C345.306 761.708 264.39 797.148 161.482 797.148Z" fill="#242424"/>
</svg>
