<svg width="1634" height="811" viewBox="0 0 1634 811" fill="none" xmlns="http://www.w3.org/2000/svg">
<g clip-path="url(#clip0_3_174)">
<path d="M1096.04 493.867C1094.41 490.547 1093.5 488.027 1093.02 486.24C1094.25 486.733 1095.87 487.507 1097.95 488.747C1100.57 490.293 1102.4 491.573 1103.66 492.573C1101.95 493.027 1099.49 493.507 1096.04 493.867ZM1058.7 142C1058.19 142 1057.68 142.04 1057.17 142.147C1054.92 142.573 1052.96 143.92 1051.75 145.853C1046.89 153.64 1042.22 160.587 1037.71 167.293C1020.7 192.6 1006.01 214.44 993.784 262.467C992.72 266.64 995.076 270.933 999.173 272.28C1002.67 273.427 1006.01 274.613 1009.1 275.8C1017.33 278.987 1024.13 282.12 1029.32 285.107C1030.6 285.84 1032.01 286.2 1033.4 286.2H1033.54C1034.07 287.507 1034.93 288.693 1036.08 289.6C1045.53 297.08 1044.21 301.093 1033.23 318.227C1024.34 332.133 1013.26 349.427 1015.56 373.573C1019.07 410.44 1010.1 463.613 974.397 502.307C972.591 504.253 971.848 506.973 972.408 509.573C972.965 512.187 974.757 514.347 977.208 515.4C991.189 521.347 1004.07 526.227 1015.5 529.893C1016.33 530.16 1017.18 530.293 1018.01 530.293C1019.17 530.293 1020.3 530.04 1021.33 529.587C1060.73 542.533 1125.08 567.2 1151.78 597.24C1153.37 599.027 1155.62 599.987 1157.91 599.987C1158.94 599.987 1159.99 599.787 1160.98 599.387C1165.54 597.547 1169.72 595.307 1173.76 593.147C1180.01 589.787 1171.35 605.88 1175.91 605.88C1176.8 605.88 1192.2 586.747 1193 586.987C1196.23 587.987 1201.74 589.053 1206.22 589.053C1206.8 589.053 1207.37 589.04 1207.9 589C1209.66 588.88 1211.34 588.2 1212.68 587.053C1214.2 585.76 1215.19 583.96 1215.47 581.987C1222.07 576.64 1229.43 571.293 1237 566.36C1238.43 565.427 1239.54 564.067 1240.16 562.467C1252.25 531.387 1275.95 477.013 1303.26 449.04C1305.38 452.133 1306.99 456.867 1309.2 463.693C1309.9 465.853 1310.62 468.08 1311.44 470.453C1312.56 473.707 1315.59 475.907 1319.02 475.973H1319.19C1322.56 475.973 1325.59 473.907 1326.82 470.747C1331.44 458.88 1329.66 447.6 1328.17 441.853C1339.09 422.107 1355.04 406.36 1370.49 391.093C1393.71 368.16 1417.73 344.453 1423.45 307.84C1424.08 303.8 1421.63 299.907 1417.72 298.72C1392.25 291.04 1366.92 287.147 1342.42 287.147C1313.84 287.147 1285.74 292.44 1258.87 302.88C1215.55 288.627 1154.57 264 1138.81 257.573C1129.29 220.933 1110 192.413 1095.23 174.72C1078.61 154.813 1064.18 144.053 1063.57 143.613C1062.15 142.56 1060.44 142 1058.7 142V142ZM1078.43 512.813C1080.91 512.813 1083.39 512.4 1085.61 511.733C1085.83 517.44 1087.59 521.76 1090.88 524.587C1093.76 527.067 1097.74 528.307 1102.76 528.307C1105.28 528.307 1108.06 527.987 1111.1 527.36L1110.25 523.253C1107.46 523.827 1104.95 524.12 1102.72 524.12C1098.77 524.12 1095.73 523.2 1093.62 521.4C1090.79 518.96 1089.51 514.72 1089.83 508.787L1090.02 505.267L1086.84 506.773C1084.45 507.893 1081.41 508.613 1078.44 508.613C1075.78 508.613 1073.17 508.04 1071.11 506.68C1068.04 504.627 1066.59 501.08 1066.8 496.133L1062.6 495.947C1062.25 504.08 1065.77 508.173 1068.79 510.173C1071.61 512.053 1075.03 512.813 1078.43 512.813V512.813ZM1091.34 502.44C1114.64 501.187 1123.69 494.507 1102.14 481.693C1097.06 478.68 1092.95 477.24 1089.96 477.24C1082.47 477.24 1082.1 486.333 1091.34 502.44V502.44ZM1181.63 490.493C1187.16 490.493 1193.7 489.4 1201.36 486.96C1201.36 486.96 1200.71 487 1199.55 487C1192.98 487 1169.98 485.507 1155.41 465.693C1156.45 479.293 1163.87 490.493 1181.63 490.493V490.493ZM1074.85 440.827C1080.23 440.827 1085.64 438.853 1090.67 435.627C1090.46 435.64 1090.24 435.64 1090.03 435.64C1061.5 435.64 1046.02 411.76 1046.02 411.76C1053.48 433.013 1064.12 440.827 1074.85 440.827V440.827ZM1249.41 423.907C1249.44 422.707 1249.69 394.253 1211.26 373.987L1209.3 377.707C1245.45 396.76 1245.22 423.533 1245.21 423.8L1249.41 423.907ZM1311.1 419.733C1311.1 419.733 1320.86 401.693 1325.16 379.28C1328.66 361.013 1346.08 357.32 1362.54 342.92C1361.07 342.84 1359.58 342.8 1358.06 342.8C1334.77 342.8 1306.57 352.293 1300.13 359.387C1293.27 366.933 1314.53 384.76 1311.1 419.733ZM1070.01 338.72C1070.56 338.28 1079.46 331.52 1095.68 331.52C1104.49 331.52 1115.47 333.52 1128.44 339.613L1130.23 335.813C1116.66 329.44 1105.09 327.32 1095.71 327.32C1077.9 327.32 1068.01 334.933 1067.39 335.427L1070.01 338.72ZM1058.7 150.187C1058.7 150.187 1114.94 191.8 1131.86 263.587C1131.86 263.587 1208.38 295.133 1259.14 311.587C1285.14 301.107 1312.91 295.347 1342.42 295.347C1365.66 295.347 1389.97 298.92 1415.35 306.573C1406.21 365.093 1346.76 387.96 1319.33 441C1319.33 441 1324.56 453.96 1319.18 467.787C1314.32 453.653 1312.32 442.72 1302.87 438.08C1272.94 464.6 1247.16 521.867 1232.52 559.493C1221.07 566.96 1212.18 573.933 1205.99 579.213L1207.36 580.813L1207.35 580.827C1206.99 580.853 1206.61 580.853 1206.22 580.853C1202.64 580.853 1197.86 579.92 1195.41 579.16C1193.77 578.653 1192.13 578.427 1190.48 578.427C1180.33 578.427 1169.81 586.973 1157.91 591.787C1129.32 559.627 1061.98 534.013 1018.65 520.093L1018 522.093C1005.12 517.96 991.872 512.733 980.419 507.853C1019.59 465.413 1027.06 407.907 1023.72 372.8C1019.34 326.787 1071.19 306.92 1041.16 283.173C1060.1 277.573 1073.17 282.04 1075.85 277.76C1085.45 241.413 1058.7 212.613 1058.7 212.613C1048.41 233.187 1055.27 254.44 1042.24 268.16C1038.77 271.813 1035.85 275.12 1033.41 278.013C1027.92 274.84 1020.91 271.587 1012.06 268.16C1008.71 266.867 1005.26 265.64 1001.73 264.48C1016.81 205.28 1035.46 187.44 1058.7 150.187" fill="#242424"/>
<path d="M500.875 168.413C471.525 168.413 442.784 171.84 415.448 178.587C391.448 184.507 367.67 195.68 344.781 211.773C325.379 225.427 306.508 242.667 288.696 263.027C257.597 298.573 234.776 338.133 223.79 363.293C222.514 366.213 223.045 369.613 225.153 372C225.303 372.16 240.312 389.24 254.751 409.667C279.928 445.28 281.64 460.187 281.208 464.947C280.915 468.173 282.536 471.2 285.242 472.773C286.526 475.413 288.424 478.533 290.926 482.093C294.57 487.28 300.7 495 309.219 502.32C318.325 510.147 332.711 519.48 349.534 519.48C351.194 519.48 352.869 519.387 354.512 519.2C364.304 518.12 379.645 514.213 399.072 509.267C443.527 497.947 504.409 482.427 563.644 482.427C580.419 482.427 596.243 483.707 610.679 486.24C653.56 493.747 696.583 509.774 735.099 532.587C736.377 533.347 737.821 533.733 739.276 533.733C740.196 533.733 741.117 533.587 742.005 533.267C744.292 532.467 746.107 530.68 746.953 528.4C753.912 509.747 755.867 490.173 752.841 470.693C763.84 480.147 776.843 489.454 797.705 497.254C798.635 497.614 799.607 497.773 800.576 497.773C802.083 497.773 803.579 497.36 804.893 496.547C806.808 495.36 808.139 493.453 808.596 491.267C810.175 489.88 811.155 487.92 811.332 485.813C813.361 461.64 817.164 436.387 820.309 417.293C843.476 422.187 910.203 438.987 932.773 473.973C934.309 476.36 936.927 477.733 939.659 477.733C940.416 477.733 941.183 477.627 941.937 477.4C945.413 476.4 947.817 473.227 947.853 469.613C947.943 460.493 948.089 445.347 935.581 434.187C936.216 432.267 938.645 428.627 939.891 426.76C941.327 424.6 942.953 422.174 944.14 419.787C947.559 412.947 945.713 408.667 943.563 406.28C938.015 400.12 937.895 397.573 937.925 397.133C937.985 396.307 939.621 394.947 941.064 393.747C944.341 391.013 950.441 385.933 947.287 377.2C942.904 365.067 946.284 361.413 951.883 355.347C957.231 349.547 963.885 342.347 962.335 327.867C961.744 322.36 963.889 316.373 968.371 311C973.716 304.6 982.284 299.093 993.336 294.92C994.321 295.333 995.397 295.56 996.511 295.56C996.657 295.56 996.807 295.56 996.959 295.547C1000.68 295.347 1003.8 292.653 1004.54 289C1006.16 281.08 1007.89 273.507 1009.67 266.507C1010.73 262.333 1008.38 258.04 1004.28 256.693C977.899 248.053 945.015 242.227 903.747 238.893C869.548 236.133 837.06 235.733 813.34 235.44C809.189 235.387 805.321 235.333 801.776 235.28C778.304 234.893 745.843 224.053 708.253 211.507C650.788 192.307 579.267 168.413 500.875 168.413V168.413ZM500.875 176.613C629.835 176.613 740.18 242.48 801.644 243.467C845.3 244.173 937.869 243.547 1001.73 264.48C999.94 271.507 998.201 279.093 996.515 287.36L995.873 285.36C962.843 295.933 952.681 314.707 954.187 328.747C955.341 339.52 950.737 344.507 945.861 349.787C939.789 356.36 933.508 363.173 939.58 379.987C940.727 383.16 939.079 384.733 935.819 387.44C933.121 389.693 930.061 392.24 929.753 396.547C929.452 400.747 931.904 405.573 937.472 411.76C938.952 413.4 935.692 418.28 933.073 422.2C928.964 428.36 924.305 435.347 929.613 439.854C939.171 448 939.764 458.813 939.659 469.533C909.976 423.52 813.616 407.64 813.616 407.64C809.573 431.48 805.355 459.08 803.167 485.133L801.077 484.893C800.903 486.493 800.737 488.04 800.576 489.587C771.997 478.894 759.613 465.76 744.137 451.84C743.325 449.427 742.435 447 741.459 444.587C721.952 396.36 673.244 358.8 620.259 351.133L619.657 355.293C671.212 362.747 718.595 399.267 737.563 446.173C748.328 472.8 748.772 500.067 739.276 525.547C699.833 502.173 656.22 485.893 612.091 478.173C596.335 475.413 580.061 474.24 563.643 474.24C503.384 474.24 441.32 490.054 397.049 501.32C377.932 506.2 362.834 510.04 353.612 511.054C352.238 511.214 350.877 511.28 349.534 511.28C335.326 511.28 322.837 503.227 314.561 496.107C300.164 483.733 291.531 468.573 291.427 466.027C291.427 466.027 291.43 466.16 291.364 466.36L289.369 465.693C292.112 435.52 231.299 366.573 231.299 366.573C251.419 320.493 318.65 210.92 417.412 186.547C445.876 179.52 473.776 176.613 500.875 176.613" fill="#242424"/>
<path d="M1319.18 459.587C1315.81 459.587 1312.77 461.653 1311.55 464.813C1310.25 468.147 1308.26 471.227 1305.63 473.96C1304.03 475.613 1303.28 477.76 1303.34 479.893C1296.81 488.733 1296.85 496.32 1296.88 502.093C1296.9 505.653 1296.86 507.76 1295.89 509.507C1294.55 511.933 1291.02 514.387 1285.41 516.773C1277.5 520.147 1272.91 526.787 1270.14 531.48C1268.35 534.533 1268.72 538.4 1271.06 541.053C1272.65 542.853 1274.9 543.827 1277.21 543.827C1278.29 543.827 1279.39 543.613 1280.43 543.173C1288.72 539.613 1297.24 536.427 1305.85 533.653C1306.91 534.147 1308.07 534.413 1309.26 534.413C1309.9 534.413 1310.54 534.333 1311.18 534.173C1313.14 533.707 1315.19 533.467 1317.25 533.467C1333.36 533.467 1349.78 547.56 1359.77 560.733C1371.04 575.587 1375.32 590.04 1373.63 596.08C1373.39 596.92 1373.03 597.72 1372.54 598.533C1370.28 602.187 1371.23 606.96 1374.71 609.48C1376.16 610.52 1377.84 611.027 1379.51 611.027C1381.85 611.027 1384.17 610.027 1385.79 608.107C1395.04 597.08 1397.11 580.133 1391.47 561.573C1385.71 542.64 1372.86 523.8 1354.29 507.093C1337.82 492.28 1331.22 477.56 1326.93 465.107C1325.81 461.867 1322.78 459.653 1319.35 459.587H1319.18ZM1319.18 467.787C1323.73 480.987 1330.79 496.973 1348.81 513.187C1385.97 546.627 1394.26 585.267 1379.51 602.827C1380.38 601.427 1381.06 599.92 1381.51 598.293C1387.46 577.04 1352.35 525.28 1317.25 525.28C1314.59 525.28 1311.92 525.573 1309.27 526.213H1309.27L1308.66 524.2C1297.38 527.6 1286.89 531.493 1277.21 535.64C1280.12 530.68 1283.63 526.44 1288.62 524.32C1305.16 517.267 1305.12 509.88 1305.08 502.053C1305.05 495.853 1305.01 489.453 1313.05 481.093L1311.53 479.64C1315.22 475.813 1317.64 471.76 1319.18 467.787" fill="#242424"/>
<path d="M1226.06 568.547C1225.19 568.547 1224.32 568.68 1223.48 568.96C1218.48 570.627 1213.93 571.747 1209.93 572.32C1209.4 572.387 1208.89 572.52 1208.39 572.693C1208.05 572.653 1207.71 572.627 1207.37 572.627C1207.2 572.627 1207.03 572.627 1206.87 572.64C1205.09 572.747 1203.39 573.427 1202.03 574.587C1194.16 581.32 1168.47 604.48 1168.47 620.24C1168.47 621.64 1168.83 623 1169.51 624.227C1172.63 629.84 1179.47 633.373 1191.03 635.347C1198.91 636.693 1209.42 637.373 1222.26 637.373C1250.45 637.373 1283.67 634.16 1299.63 632.613C1301.97 632.387 1303.93 632.2 1305.44 632.067C1307.6 631.867 1310.09 631.68 1312.99 631.467C1323.74 630.68 1338.46 629.587 1351.93 626.573C1369.55 622.613 1380.85 616.253 1386.49 607.133C1388.74 603.48 1387.79 598.693 1384.31 596.187C1382.86 595.147 1381.18 594.64 1379.51 594.64C1379.03 594.64 1378.55 594.68 1378.07 594.76C1343.42 594.027 1261.11 591.72 1230.55 588.653C1231.44 586.053 1232.52 582.987 1233.77 579.52C1234.83 576.573 1234.12 573.267 1231.93 571.027C1230.36 569.413 1228.23 568.547 1226.06 568.547V568.547ZM1226.06 576.747C1221.92 588.2 1219.65 595.413 1219.65 595.413C1241.6 600.12 1379.39 602.987 1379.39 602.987L1379.51 602.827C1368.13 621.28 1323.39 622.2 1304.7 623.893C1292.92 624.973 1254.19 629.173 1222.26 629.173C1199.66 629.173 1180.46 627.067 1176.67 620.24C1176.67 613.067 1187.59 597.693 1207.35 580.827H1207.37L1208.72 582.413C1209.47 581.773 1210.26 581.107 1211.08 580.427C1215.78 579.76 1220.9 578.453 1226.06 576.747" fill="#242424"/>
<path d="M1136.89 594.64C1139.61 595.413 1142.46 595.56 1145.27 595.267C1147.08 595.08 1147.56 594.267 1148.36 596.04C1148.92 597.253 1149.79 598.16 1150.66 599.16C1154.1 603.107 1157.2 607.48 1159.17 612.347C1137.36 617.4 1113.54 615.387 1091.49 613.24C1066.23 610.773 1041.01 607.347 1015.78 604.547C972.013 599.693 928.111 594.68 884.864 586.227C866.112 582.56 846.599 578.667 829.047 570.867C824.947 569.04 820.041 566.88 817.104 563.307C813.112 558.453 812.265 549.4 811.413 543.453C824.085 545.427 836.728 547.68 849.236 550.52C858.399 552.6 867.839 554.733 876.512 558.453C879.781 559.867 884.744 557.787 888.117 557.107C895.095 555.693 902.009 553.96 908.807 551.853C921.04 548.067 932.909 543.067 944.036 536.707C951.428 532.48 958.483 527.667 965.08 522.293C968.341 519.627 971.489 516.84 974.513 513.907C975.733 512.733 975.456 512.373 977.199 513.173C978.523 513.787 979.848 514.4 981.171 515.027C983.827 516.267 986.479 517.52 989.123 518.787C1000.19 524.107 1010.95 530.013 1021.97 535.427C1031.66 540.187 1042.2 540.413 1052.74 541.267C1057.32 541.64 1061.98 542.253 1066.23 544.107C1068.17 544.96 1070 546.08 1071.63 547.427C1072.65 548.267 1074.43 551.12 1075.49 550.24C1077.17 548.84 1077.66 550.72 1078.94 552.173C1080.26 553.667 1081.61 555.12 1082.98 556.56C1085.99 559.707 1089.11 562.733 1092.32 565.68C1104.97 577.253 1120.08 589.84 1136.89 594.64C1138.76 595.173 1117.68 589.147 1136.89 594.64V594.64ZM794.463 536.04C790.715 539.84 792.472 545.267 793.448 549.84C794.599 555.227 796.121 560.52 797.984 565.693C800.448 572.533 803.907 577.56 809.907 581.787C823.784 591.573 841.795 595.96 858.079 599.867C898.725 609.613 940.56 614.64 982.019 619.48C1005.08 622.173 1028.19 624.52 1051.26 627.093C1071.97 629.413 1092.56 632.453 1113.4 633.347C1130.52 634.093 1148.45 634.24 1165.17 629.92C1168.1 629.173 1171.08 628.28 1173.77 626.867C1180.97 623.093 1179.83 616.307 1177.78 609.56C1176.22 604.427 1173.78 599.587 1170.82 595.12C1168.29 591.28 1164.85 585.253 1160.16 583.907C1155.54 582.587 1150.4 586.173 1145.87 586.92C1141.81 587.6 1138.26 586.667 1134.54 585.12C1117.93 578.2 1103.08 565.373 1090.6 552.667C1087.56 549.573 1084.79 545.16 1081.25 542.667C1079.53 541.453 1077.54 541.587 1075.93 540.36C1073.95 538.84 1071.77 537.56 1069.48 536.56C1060.1 532.493 1049.69 533.28 1039.76 532.027C1028.05 530.56 1018.31 524.16 1007.97 518.933C1002.37 516.12 996.749 513.347 991.095 510.653C986.713 508.56 980.837 504.373 975.88 504.373C971.027 504.373 967.784 509.107 964.473 512.04C961.164 514.987 957.712 517.773 954.141 520.387C946.548 525.96 938.409 530.773 929.915 534.84C920.979 539.12 911.655 542.573 902.129 545.28C896.912 546.773 891.632 548.04 886.313 549.107C883.787 549.613 881.248 550.08 878.705 550.507C877.723 550.107 876.729 549.733 875.732 549.373C858.315 543.133 839.703 539.853 821.515 536.787C816.82 536 812.117 535.267 807.411 534.56C803.033 533.893 798.013 532.453 794.463 536.04C792.637 537.893 796.015 534.467 794.463 536.04" fill="#242424"/>
<path d="M229.273 364.84C225.852 364.84 222.686 367 221.526 370.387C214.836 389.88 202.641 408.547 189.732 428.307C178.788 445.067 167.471 462.4 158.82 481.373C148.848 503.24 143.999 524.147 144 545.253C144.001 558.24 151.872 576.773 189.361 591.28C214.583 601.04 249.484 607.36 287.628 609.08C318.829 610.493 356.288 619.52 395.945 629.08C448.936 641.853 508.996 656.333 569.204 656.333C596.449 656.333 625.181 658.133 649.695 659.893C649.893 659.907 650.088 659.907 650.284 659.907C651.091 659.907 651.893 659.8 652.668 659.56L653.507 659.307C657.9 657.973 662.441 656.587 666.088 654.973C668.451 653.92 675.645 650.733 676.473 643.6C677.428 635.387 669.336 630.693 666.677 629.147C653.868 621.707 650.408 616.373 650.077 614.773C650.644 614.173 652.76 612.8 657.531 611.987C667.541 610.267 677.42 610.067 683.983 610.067C686.328 610.067 688.584 610.093 690.571 610.12C692.307 610.147 693.944 610.16 695.429 610.16C698.681 610.16 700.784 610.067 702.461 609.827C709.047 608.88 711.036 604.933 711.639 602.68C713.399 596.04 707.336 591.667 705.053 590.013C702.239 587.987 698.071 585.413 691.533 581.68C690.632 581.16 689.807 580.68 689.052 580.227C689.345 580.213 689.644 580.213 689.955 580.213C694.607 580.213 700.431 580.507 707.267 581.08C722.848 582.387 741.333 591.16 756.187 598.213C768.835 604.227 777.975 608.56 784.895 608.56C790.949 608.56 794.027 605.333 795.324 603.4C799.341 597.427 796.904 589.307 793.989 582.147C792.211 577.787 791.188 574.307 790.643 571.56C792.477 571.24 794.213 570.293 795.5 568.747C798.404 565.28 797.945 560.107 794.475 557.2L794.424 557.16H794.419L794.377 557.12L794.365 557.107L794.309 557.067L794.276 557.04L794.016 556.827L793.995 556.8L793.525 556.413L793.495 556.387C791.893 555.053 790.279 553.733 788.695 552.453L788.616 552.4C778.896 544.573 768.707 537.133 758.331 530.28C756.979 529.387 755.408 528.92 753.815 528.92C753.392 528.92 752.965 528.96 752.543 529.027C751.721 528.493 750.876 527.96 750.004 527.413C748.989 526.773 747.848 526.373 746.659 526.227L746.429 526.2L746.34 526.187H746.293L746.152 526.173C745.785 526.147 745.421 526.12 745.047 526.093L744.868 526.08L744.804 526.067C744.52 526.053 744.224 526.04 743.916 526.013L743.528 526C743.259 525.987 742.976 525.96 742.688 525.947H742.583L742.311 525.933C741.963 525.92 741.605 525.907 741.243 525.893H741.181L741.063 525.88L740.777 525.867H740.617H740.332C739.609 525.867 738.903 525.96 738.224 526.133C737.469 525.893 736.677 525.773 735.863 525.76C734.063 525.733 732.119 525.72 729.92 525.72C720.748 525.72 709.032 525.933 694.2 526.213C670.276 526.653 640.501 527.213 603.285 527.213C517.556 527.213 431.955 524.213 341.596 518.04L341.377 518.027C337.261 517.853 327.953 515.653 311.856 502.8C299.75 493.147 286.635 479.547 274.927 464.52C247.917 429.853 233.15 394.6 237.298 374.72C238.182 370.48 235.619 366.28 231.446 365.147C230.724 364.947 229.992 364.84 229.273 364.84V364.84ZM789.123 563.413L789.216 563.493L789.123 563.413ZM788.255 562.693C788.545 562.933 788.832 563.173 789.123 563.413C788.833 563.173 788.544 562.933 788.255 562.693ZM783.555 558.84C785.129 560.107 786.697 561.387 788.255 562.693C786.697 561.387 785.129 560.107 783.555 558.84ZM229.277 373.04C218.995 422.307 302.573 524.613 341.039 526.213C449.621 533.627 537.26 535.413 603.285 535.413C663.88 535.413 706.268 533.92 729.92 533.92C732.009 533.92 733.952 533.92 735.747 533.947C731.935 542.107 727.081 550.053 721.176 557.68L724.5 560.253C731.007 551.853 736.281 543.08 740.335 534.053C740.472 534.067 740.62 534.067 740.755 534.067L740.929 534.08C741.275 534.093 741.613 534.107 741.943 534.12L742.297 534.133C742.565 534.147 742.828 534.16 743.085 534.173L743.44 534.2C743.723 534.213 743.996 534.227 744.264 534.253L744.48 534.267C744.819 534.28 745.145 534.307 745.46 534.333L745.637 534.347H745.643C747.997 535.84 750.34 537.333 752.66 538.867L753.815 537.12C764.007 543.84 773.933 551.093 783.555 558.84C780.989 563.92 781.06 572.12 786.401 585.24C790.924 596.347 789.785 600.373 784.895 600.373C772.695 600.373 737.167 575.36 707.951 572.92C701.129 572.347 695.047 572.027 689.955 572.027C671.055 572.027 665.839 576.44 687.467 588.787C708.304 600.707 707.031 601.973 695.429 601.973C692.292 601.973 688.4 601.88 683.983 601.88C675.961 601.88 666.213 602.187 656.145 603.907C637.877 607.04 634.212 619.773 662.56 636.227C676.157 644.12 663.225 647.787 650.284 651.72C622.488 649.72 594.919 648.133 569.204 648.133C464.95 648.133 362.07 604.24 287.997 600.893C213.924 597.56 152.196 576.76 152.195 545.253C152.192 473.987 210.597 427.48 229.277 373.04" fill="#242424"/>
<path d="M647.48 644.013C641.225 646.293 640.26 655.027 645.861 658.627C648.937 660.587 653.335 660.16 656.835 660.413C661.127 660.733 665.42 661.053 669.715 661.387C707.409 664.267 745.168 667.68 783 667.907C794.664 667.973 806.24 666.773 817.86 666.773C833.829 665.493 850.099 663.107 865.021 657.027C868.583 655.587 871.973 654.067 872.935 649.987C873.889 645.707 870.732 640.707 867.868 637.84C859.971 626.4 851.507 615.373 842.491 604.8C831.196 591.56 819.053 579.04 806.147 567.36C806.147 566.733 803.284 564.8 802.801 564.373C800.733 562.547 798.648 560.733 796.543 558.947C794.325 556.733 791.48 554.96 788.221 555.36C783.711 555.907 780.448 560.2 781.108 564.68C781.571 567.813 783.704 569.547 785.935 571.44C792.139 577.64 799.205 583.093 805.509 589.24C811.88 595.453 818.036 601.867 823.967 608.507C834.099 619.827 843.588 631.747 852.32 644.187C839.605 648.173 826.213 649.8 812.963 650.707C806.093 650.707 799.277 651.4 792.396 651.48C785.516 651.573 778.636 651.507 771.76 651.347C753.492 650.907 735.243 649.8 717.016 648.52C704.977 647.667 692.945 646.733 680.911 645.813C674.725 645.333 668.54 644.853 662.353 644.387C657.884 644.053 651.796 642.453 647.48 644.013C643.847 645.333 647.692 643.947 647.48 644.013" fill="#242424"/>
<path d="M1259.14 311.587C1208.38 295.133 1131.86 263.587 1131.86 263.587C1114.94 191.8 1058.7 150.187 1058.7 150.187C1032.7 191.853 1012.45 209.213 996.515 287.36C962.221 298.347 955.071 317.267 956.277 328.52C959.017 354.12 931.155 350.467 941.557 379.28C945.897 391.293 919.697 388.88 939.035 410.36C944.455 416.373 923.589 431.973 930.973 438.253C953.532 457.467 929.545 490.387 953.532 500.44C977.601 510.533 1001.09 521.933 1021.66 532.907C1042.24 543.88 1062.81 532.907 1076.53 549.373C1090.25 565.827 1117.68 589.147 1136.89 594.64C1156.09 600.12 1179.87 574.52 1197.7 580C1215.53 585.493 1257.6 564.92 1264.46 555.307C1271.32 545.707 1274.93 527.867 1287.8 522.387C1315.67 510.507 1292.49 499.453 1311.53 479.64C1328.02 462.493 1319.33 441 1319.33 441C1346.76 387.96 1406.21 365.093 1415.35 306.573C1357.74 289.2 1305.61 292.853 1259.14 311.587" fill="#F47D42"/>
<path d="M1023.72 290.8C1051.84 274.333 1072.42 283.253 1075.85 277.76C1085.45 241.413 1058.7 212.613 1058.7 212.613C1048.41 233.187 1055.27 254.44 1042.24 268.16C1029.21 281.88 1023.72 290.8 1023.72 290.8Z" fill="#242424"/>
<path d="M1311.1 419.733C1314.53 384.76 1293.27 366.934 1300.13 359.387C1306.98 351.84 1338.53 341.547 1362.54 342.92C1346.08 357.32 1328.66 361.013 1325.16 379.28C1320.86 401.693 1311.1 419.733 1311.1 419.733Z" fill="#242424"/>
<path d="M1155.41 465.693C1172.55 489.013 1201.36 486.96 1201.36 486.96C1169.13 497.24 1156.78 483.52 1155.41 465.693Z" fill="#242424"/>
<path d="M1243.14 425.787L1243.16 423.773C1243.17 423.507 1243.04 397.813 1208.34 379.52L1206.53 378.56L1210.4 371.213L1212.21 372.173C1251.73 393.013 1251.49 422.707 1251.46 423.96L1251.42 426L1243.14 425.787" fill="#242424"/>
<path d="M1090.67 435.627C1061.73 435.987 1046.02 411.76 1046.02 411.76C1057.22 443.693 1075.61 445.28 1090.67 435.627Z" fill="#242424"/>
<path d="M1127.57 341.467C1091.86 324.693 1072.09 339.68 1071.27 340.333L1069.67 341.587L1064.51 335.093L1066.12 333.813C1067.1 333.04 1090.65 314.96 1131.1 333.947L1132.95 334.827L1129.42 342.333L1127.57 341.467" fill="#242424"/>
<path d="M1091.34 502.44C1114.64 501.187 1123.69 494.507 1102.14 481.693C1084.3 471.093 1078.42 479.92 1091.34 502.44Z" fill="#242424"/>
<path d="M1102.76 528.307C1105.28 528.307 1108.06 527.987 1111.1 527.36L1110.25 523.253C1102.5 524.853 1096.91 524.227 1093.62 521.4C1090.79 518.96 1089.51 514.72 1089.83 508.787L1090.02 505.267L1086.84 506.773C1082.31 508.907 1075.46 509.56 1071.11 506.68C1068.04 504.627 1066.59 501.08 1066.8 496.133L1062.6 495.947C1062.25 504.08 1065.77 508.173 1068.79 510.173C1073.68 513.427 1080.37 513.32 1085.61 511.733C1085.83 517.44 1087.59 521.76 1090.88 524.587C1093.76 527.067 1097.74 528.307 1102.76 528.307Z" fill="#242424"/>
<path d="M1012.06 268.16C948.275 243.467 847.719 244.213 801.644 243.467C727.264 242.267 581.335 146.08 417.412 186.547C318.65 210.92 251.419 320.493 231.299 366.573C211.18 412.653 300.801 524.547 341.039 526.213C606.24 544.333 746.537 528.787 752.024 535.933C853.527 546.373 877.629 558.973 877.629 558.973C1007.49 538.853 1028.98 428.067 1023.72 372.8C1018.46 317.547 1094.28 299.987 1012.06 268.16Z" fill="#F47D42"/>
<path d="M739.528 447.773C764.724 469.533 777.983 489.84 851.125 502.44C851.125 502.44 853.171 530.173 854.012 551.64C835.445 547.147 803.832 541.267 752.024 535.933C751.159 534.813 746.943 534.253 739.411 534.027C740.404 520.64 757.521 505.893 739.528 447.773" fill="#F47D42"/>
<path d="M1379.39 602.987C1394.32 585.493 1386.08 546.733 1348.81 513.187C1311.53 479.64 1321.16 447.053 1302.87 438.08C1256.23 479.413 1219.65 595.413 1219.65 595.413C1241.6 600.12 1379.39 602.987 1379.39 602.987Z" fill="#F47D42"/>
<path d="M718.301 558.053L719.555 556.427C745.128 523.373 750.848 484.493 735.663 446.933C716.959 400.693 670.224 364.68 619.363 357.32L617.336 357.027L618.523 348.813L620.552 349.107C674.235 356.867 723.585 394.933 743.357 443.827C759.697 484.227 753.575 526.027 726.121 561.507L724.867 563.133L718.301 558.053" fill="#242424"/>
<path d="M1259.89 554.573L1261.08 552.907C1263.08 550.107 1264.85 546.36 1266.73 542.413C1271.07 533.267 1275.99 522.907 1286.17 518.56C1298.88 513.147 1298.86 508.987 1298.82 502.08C1298.79 495.693 1298.75 486.947 1308.54 476.76L1309.96 475.28L1315.94 481.04L1314.53 482.52C1307.07 490.28 1307.09 495.987 1307.13 502.04C1307.17 510.187 1307.21 518.613 1289.43 526.2C1282.14 529.307 1278.12 537.773 1274.23 545.973C1272.19 550.267 1270.26 554.333 1267.84 557.733L1266.65 559.4L1259.89 554.573" fill="#242424"/>
<path d="M1073.34 552.027C1066.81 544.187 1058.51 543.667 1048 543C1039.36 542.453 1029.57 541.827 1019.71 536.573C997.468 524.707 974.028 513.547 951.925 504.267C937.181 498.093 937.391 484.347 937.575 472.227C937.752 460.6 937.919 449.627 928.285 441.413C921.591 435.72 927.241 427.253 931.369 421.067C932.821 418.893 935.796 414.44 935.8 412.96C929.94 406.413 927.368 401.147 927.709 396.4C928.08 391.227 931.64 388.253 934.507 385.867C938.033 382.933 938.24 382.307 937.653 380.68C931.157 362.693 938.169 355.093 944.357 348.4C949.104 343.253 953.204 338.813 952.149 328.96C950.559 314.12 961.045 294.36 995.249 283.413L997.2 282.787L999.729 290.693L997.777 291.32C968.328 300.747 959.161 316.48 960.404 328.08C961.86 341.68 955.537 348.52 950.456 354.027C944.779 360.173 940.679 364.613 945.46 377.867C948.151 385.307 943.137 389.48 939.82 392.253C937.517 394.173 936.103 395.427 935.988 396.987C935.895 398.293 936.568 401.413 942.121 407.587C946.849 412.84 942.293 419.653 938.276 425.68C936.871 427.787 932.596 434.187 933.665 435.093C946.28 445.84 946.067 459.92 945.875 472.347C945.695 484.107 945.567 492.6 955.137 496.613C977.472 505.987 1001.15 517.267 1023.62 529.24C1031.89 533.653 1040.34 534.187 1048.54 534.72C1059.53 535.413 1070.9 536.133 1079.72 546.707L1081.03 548.28L1074.65 553.6L1073.34 552.027" fill="#242424"/>
<path d="M1309.07 526.28C1232.28 549.48 1182.41 598.84 1177.13 617.333C1176.55 619.36 1177.31 621.52 1179.02 622.76C1196.65 635.507 1285.71 625.627 1304.7 623.893C1324.82 622.067 1375.11 621.16 1381.51 598.293C1387.9 575.48 1346.92 517.44 1309.48 526.16C1309.34 526.2 1309.2 526.227 1309.07 526.28Z" fill="#F47D42"/>
<path d="M1205.15 582.667C1221.17 568.987 1259.2 543.493 1309.88 528.227L1308.66 524.2C1257.25 539.693 1209.72 565.587 1193.45 579.48L1205.15 582.667Z" fill="#242424"/>
<path d="M813.616 407.64C804.469 461.573 794.411 534.733 809.043 565.827C823.675 596.92 1017.68 611.907 1069.11 618.867C1148.55 629.613 1169.07 617.707 1169.07 617.707C1163.64 578.867 1092.04 543.133 1023.52 521.12C989.78 510.293 954.132 491.627 954.132 491.627C948.036 427.44 813.616 407.64 813.616 407.64" fill="#F47D42"/>
<path d="M1127.33 631.707C1159.35 631.707 1169.54 626.093 1170.13 625.76L1171.35 625.04L1173.94 611.08C1167.77 567.04 1072.96 543.773 1018.65 526.333L1017.36 530.333C1106.65 559 1170.59 584.36 1166.73 622.68C1161.16 624.84 1136.31 632.067 1069.4 623.027C1060.09 621.76 1045.85 620.24 1029.35 618.493C991.189 614.427 938.927 608.853 894.797 601.027C830.784 589.667 816.588 578.28 813.689 570.987C804.103 546.827 802.813 526.2 806.488 493.147L801.077 491.133C797.331 524.853 797.179 547.867 807.088 572.84C817.112 598.08 926.843 611.8 1028.9 622.667C1045.37 624.427 1059.59 625.933 1068.83 627.187C1093.63 630.547 1112.75 631.707 1127.33 631.707" fill="#242424"/>
<path d="M231.299 366.573C215.295 423.853 152.191 471.173 152.195 545.253C152.196 576.76 213.924 597.56 287.997 600.893C362.07 604.24 464.95 648.133 569.204 648.133C673.456 648.133 808.179 674.2 864.96 648.133C803.771 556.227 710.492 497.52 611.729 480.24C512.961 462.947 389.937 509.16 353.841 513.147C317.744 517.12 287.997 469.813 289.369 465.693C292.112 435.52 231.299 366.573 231.299 366.573" fill="#F47D42"/>
<path d="M864.96 648.133C822.181 667.773 735.173 657.827 650.281 651.72C663.221 647.787 676.159 644.133 662.56 636.227C634.212 619.773 637.877 607.04 656.147 603.907C692.247 597.72 724.181 609.773 687.467 588.787C660.011 573.107 675.812 570.227 707.951 572.92C748.885 576.347 802.201 624.053 786.401 585.24C781.06 572.12 780.989 563.92 783.555 558.84C814.293 583.6 841.907 613.507 864.96 648.133" fill="#FFCC88"/>
<path d="M758.117 539.933L772.831 540.173C729.428 511.52 662.163 486.933 612.089 478.173C538.507 465.293 453.381 486.973 397.049 501.32C377.932 506.2 362.834 510.04 353.612 511.053C337.726 512.813 323.619 503.893 314.561 496.107C300.164 483.733 291.531 468.573 291.427 466.027C291.427 466.027 291.43 466.16 291.364 466.36L287.375 465.027C286.216 468.507 293.393 479.173 298.499 485.493C306.497 495.4 327.934 518.12 354.07 515.24C363.584 514.187 378.811 510.307 398.086 505.4C454.07 491.133 538.232 472.533 610.92 485.253C660.429 493.92 715.187 511.587 758.117 539.933Z" fill="#242424"/>
<path d="M1195.6 577.267C1195.6 577.267 1177.96 594.733 1175.46 602.973C1170.75 596.253 1161.33 587.8 1161.33 587.8L1188.55 576.453L1195.6 577.267Z" fill="#F47D42"/>
<path d="M763.205 533.387C763.205 533.387 798.732 560.427 804.964 566.107C803.301 557.107 799.84 541.347 799.008 531.24C798.177 521.12 781.004 528.467 781.004 528.467L763.205 533.387" fill="#F47D42"/>
</g>
<defs>
<clipPath id="clip0_3_174">
<rect width="1634" height="811" fill="white"/>
</clipPath>
</defs>
</svg>
