<svg width="1634" height="811" viewBox="0 0 1634 811" fill="none" xmlns="http://www.w3.org/2000/svg">
<g clip-path="url(#clip0_3_174)">
<path d="M495.613 493.867C492.16 493.507 489.707 493.027 487.987 492.573C489.253 491.573 491.08 490.293 493.707 488.747C495.787 487.507 497.4 486.733 498.627 486.24C498.16 488.027 497.253 490.547 495.613 493.867V493.867ZM532.96 142C531.213 142 529.507 142.56 528.08 143.613C527.48 144.053 513.04 154.813 496.427 174.72C481.653 192.413 462.373 220.933 452.84 257.573C437.08 264 376.107 288.627 332.787 302.88C305.907 292.44 277.813 287.147 249.227 287.147C224.733 287.147 199.4 291.04 173.933 298.72C170.013 299.907 167.573 303.8 168.2 307.84C173.933 344.453 197.933 368.16 221.16 391.093C236.613 406.36 252.56 422.107 263.48 441.853C261.987 447.6 260.213 458.88 264.827 470.747C266.053 473.907 269.093 475.973 272.467 475.973H272.627C276.067 475.907 279.093 473.707 280.213 470.453C281.027 468.08 281.76 465.853 282.453 463.693C284.667 456.867 286.267 452.133 288.4 449.04C315.707 477.013 339.413 531.387 351.493 562.467C352.12 564.067 353.227 565.427 354.653 566.36C362.227 571.293 369.573 576.64 376.187 581.987C376.467 583.96 377.453 585.76 378.973 587.053C380.32 588.2 381.987 588.88 383.747 589C384.28 589.04 384.853 589.053 385.427 589.053C389.907 589.053 395.427 587.987 398.653 586.987C399.453 586.747 414.853 605.88 415.747 605.88C420.307 605.88 411.64 589.787 417.893 593.147C421.933 595.307 426.12 597.547 430.667 599.387C431.667 599.787 432.707 599.987 433.747 599.987C436.04 599.987 438.28 599.027 439.867 597.24C466.573 567.2 530.933 542.533 570.32 529.587C571.36 530.04 572.493 530.293 573.653 530.293C574.48 530.293 575.32 530.16 576.16 529.893C587.587 526.227 600.467 521.347 614.44 515.4C616.893 514.347 618.693 512.187 619.24 509.573C619.8 506.973 619.067 504.253 617.253 502.307C581.56 463.613 572.587 410.44 576.093 373.573C578.387 349.427 567.32 332.133 558.427 318.227C547.44 301.093 546.12 297.08 555.573 289.6C556.72 288.693 557.587 287.507 558.107 286.2H558.253C559.64 286.2 561.053 285.84 562.333 285.107C567.533 282.12 574.333 278.987 582.546 275.8C585.64 274.613 588.973 273.427 592.48 272.28C596.573 270.933 598.933 266.64 597.867 262.467C585.64 214.44 570.947 192.6 553.947 167.293C549.427 160.587 544.76 153.64 539.907 145.853C538.693 143.92 536.733 142.573 534.48 142.147C533.973 142.04 533.467 142 532.96 142V142ZM513.227 512.813C516.627 512.813 520.04 512.053 522.867 510.173C525.88 508.173 529.4 504.08 529.053 495.947L524.853 496.133C525.067 501.08 523.613 504.627 520.547 506.68C518.493 508.04 515.867 508.613 513.213 508.613C510.24 508.613 507.2 507.893 504.813 506.773L501.627 505.267L501.827 508.787C502.133 514.72 500.867 518.96 498.027 521.4C495.933 523.2 492.88 524.12 488.933 524.12C486.707 524.12 484.2 523.827 481.4 523.253L480.56 527.36C483.587 527.987 486.373 528.307 488.893 528.307C493.92 528.307 497.893 527.067 500.773 524.587C504.053 521.76 505.827 517.44 506.053 511.733C508.267 512.4 510.733 512.813 513.227 512.813V512.813ZM500.32 502.44C509.56 486.333 509.173 477.24 501.693 477.24C498.707 477.24 494.6 478.68 489.52 481.693C467.973 494.507 477.013 501.187 500.32 502.44ZM410.027 490.493C427.773 490.493 435.2 479.293 436.253 465.693C421.667 485.507 398.667 487 392.107 487C390.947 487 390.293 486.96 390.293 486.96C397.96 489.4 404.493 490.493 410.027 490.493ZM516.813 440.827C527.533 440.827 538.173 433.013 545.64 411.76C545.64 411.76 530.16 435.64 501.627 435.64C501.413 435.64 501.2 435.64 500.987 435.627C506.013 438.853 511.427 440.827 516.813 440.827V440.827ZM342.24 423.907L346.44 423.8C346.44 423.533 346.2 396.76 382.36 377.707L380.4 373.987C341.96 394.253 342.213 422.707 342.24 423.907V423.907ZM280.56 419.733C277.12 384.76 298.387 366.933 291.533 359.387C285.093 352.293 256.88 342.8 233.6 342.8C232.08 342.8 230.587 342.84 229.12 342.92C245.573 357.32 262.987 361.013 266.493 379.28C270.787 401.693 280.56 419.733 280.56 419.733V419.733ZM521.653 338.72L524.267 335.427C523.64 334.933 513.747 327.32 495.947 327.32C486.56 327.32 475 329.44 461.427 335.813L463.213 339.613C476.187 333.52 487.16 331.52 495.973 331.52C512.187 331.52 521.093 338.28 521.653 338.72V338.72ZM532.96 150.187C556.2 187.44 574.84 205.28 589.933 264.48C586.386 265.64 582.933 266.867 579.6 268.16C570.747 271.587 563.733 274.84 558.24 278.013C555.813 275.12 552.88 271.813 549.413 268.16C536.387 254.44 543.24 233.187 532.96 212.613C532.96 212.613 506.2 241.413 515.813 277.76C518.48 282.04 531.547 277.573 550.493 283.173C520.467 306.92 572.306 326.787 567.933 372.8C564.6 407.907 572.067 465.413 611.24 507.853C599.787 512.733 586.533 517.96 573.653 522.093L573 520.093C529.68 534.013 462.333 559.627 433.747 591.787C421.84 586.973 411.32 578.427 401.173 578.427C399.52 578.427 397.88 578.653 396.24 579.16C393.8 579.92 389.013 580.853 385.427 580.853C385.04 580.853 384.653 580.853 384.293 580.827V580.813L385.653 579.213C379.48 573.933 370.587 566.96 359.133 559.493C344.493 521.867 318.707 464.6 288.787 438.08C279.333 442.72 277.333 453.653 272.467 467.787C267.093 453.96 272.32 441 272.32 441C244.893 387.96 185.44 365.093 176.307 306.573C201.68 298.92 226 295.347 249.227 295.347C278.747 295.347 306.507 301.107 332.52 311.587C383.267 295.133 459.8 263.587 459.8 263.587C476.707 191.8 532.96 150.187 532.96 150.187" fill="#242424"/>
<path d="M1090.77 168.413C1012.39 168.413 940.866 192.307 883.4 211.507C845.813 224.053 813.346 234.893 789.88 235.28C786.333 235.333 782.467 235.387 778.32 235.44C754.6 235.733 722.107 236.133 687.907 238.893C646.64 242.227 613.76 248.053 587.373 256.693C583.28 258.04 580.92 262.333 581.987 266.507C583.773 273.507 585.493 281.08 587.107 289C587.853 292.653 590.973 295.347 594.693 295.547C594.84 295.56 595 295.56 595.146 295.56C596.253 295.56 597.333 295.333 598.32 294.92C609.373 299.093 617.933 304.6 623.28 311C627.76 316.373 629.907 322.36 629.32 327.867C627.773 342.347 634.427 349.547 639.773 355.347C645.373 361.413 648.747 365.067 644.373 377.2C641.213 385.933 647.307 391.013 650.587 393.747C652.027 394.947 653.666 396.307 653.733 397.133C653.76 397.573 653.64 400.12 648.093 406.28C645.933 408.667 644.093 412.947 647.507 419.787C648.707 422.174 650.32 424.6 651.76 426.76C653.013 428.627 655.44 432.267 656.066 434.187C643.56 445.347 643.706 460.493 643.8 469.613C643.84 473.227 646.24 476.4 649.72 477.4C650.467 477.627 651.24 477.733 652 477.733C654.72 477.733 657.346 476.36 658.88 473.973C681.453 438.987 748.173 422.187 771.346 417.293C774.493 436.387 778.293 461.64 780.32 485.813C780.493 487.92 781.48 489.88 783.053 491.267C783.52 493.453 784.84 495.36 786.76 496.547C788.08 497.36 789.573 497.773 791.08 497.773C792.04 497.773 793.013 497.614 793.946 497.254C814.813 489.454 827.813 480.147 838.813 470.693C835.786 490.173 837.747 509.747 844.707 528.4C845.547 530.68 847.36 532.467 849.653 533.267C850.533 533.587 851.453 533.733 852.373 533.733C853.827 533.733 855.28 533.347 856.56 532.587C895.067 509.774 938.093 493.747 980.973 486.24C995.413 483.707 1011.24 482.427 1028.01 482.427C1087.24 482.427 1148.12 497.947 1192.59 509.267C1212.01 514.213 1227.35 518.12 1237.15 519.2C1238.79 519.387 1240.45 519.48 1242.12 519.48C1258.95 519.48 1273.33 510.147 1282.43 502.32C1290.95 495 1297.08 487.28 1300.73 482.093C1303.23 478.533 1305.13 475.413 1306.41 472.773C1309.12 471.2 1310.73 468.173 1310.44 464.947C1310.01 460.187 1311.72 445.28 1336.91 409.667C1351.35 389.24 1366.35 372.16 1366.49 372C1368.61 369.613 1369.13 366.213 1367.87 363.293C1356.88 338.133 1334.05 298.573 1302.96 263.027C1285.15 242.667 1266.28 225.427 1246.87 211.773C1223.99 195.68 1200.2 184.507 1176.2 178.587C1148.87 171.84 1120.13 168.413 1090.77 168.413V168.413ZM1090.77 176.613C1117.88 176.613 1145.77 179.52 1174.24 186.547C1273 210.92 1340.24 320.493 1360.36 366.573C1360.36 366.573 1299.55 435.52 1302.28 465.693L1300.29 466.36C1300.23 466.16 1300.23 466.027 1300.23 466.027C1300.12 468.573 1291.49 483.733 1277.09 496.107C1268.81 503.227 1256.32 511.28 1242.12 511.28C1240.77 511.28 1239.41 511.214 1238.04 511.054C1228.81 510.04 1213.72 506.2 1194.6 501.32C1150.33 490.054 1088.27 474.24 1028.01 474.24C1011.59 474.24 995.32 475.413 979.56 478.173C935.427 485.893 891.827 502.173 852.373 525.547C842.88 500.067 843.32 472.8 854.093 446.173C873.053 399.267 920.44 362.747 972 355.293L971.4 351.133C918.413 358.8 869.706 396.36 850.2 444.587C849.213 447 848.333 449.427 847.52 451.84C832.04 465.76 819.653 478.894 791.08 489.587C790.92 488.04 790.747 486.493 790.573 484.893L788.493 485.133C786.293 459.08 782.08 431.48 778.04 407.64C778.04 407.64 681.68 423.52 652 469.533C651.893 458.813 652.48 448 662.04 439.854C667.347 435.347 662.693 428.36 658.573 422.2C655.96 418.28 652.707 413.4 654.187 411.76C659.747 405.573 662.2 400.747 661.893 396.547C661.587 392.24 658.533 389.693 655.84 387.44C652.573 384.733 650.933 383.16 652.066 379.987C658.146 363.173 651.867 356.36 645.787 349.787C640.92 344.507 636.306 339.52 637.466 328.747C638.973 314.707 628.813 295.933 595.773 285.36L595.133 287.36C593.453 279.093 591.706 271.507 589.933 264.48C653.786 243.547 746.346 244.173 790.013 243.467C851.48 242.48 961.813 176.613 1090.77 176.613" fill="#242424"/>
<path d="M272.467 459.587H272.307C268.867 459.653 265.84 461.867 264.72 465.107C260.427 477.56 253.827 492.28 237.36 507.093C218.8 523.8 205.933 542.64 200.187 561.573C194.547 580.133 196.613 597.08 205.867 608.107C207.48 610.027 209.8 611.027 212.147 611.027C213.813 611.027 215.493 610.52 216.947 609.48C220.427 606.96 221.373 602.187 219.12 598.533C218.613 597.72 218.267 596.92 218.027 596.08C216.333 590.04 220.613 575.587 231.88 560.733C241.88 547.56 258.293 533.467 274.4 533.467C276.467 533.467 278.507 533.707 280.48 534.173C281.12 534.333 281.76 534.413 282.387 534.413C283.587 534.413 284.747 534.147 285.8 533.653C294.413 536.427 302.933 539.613 311.213 543.173C312.267 543.613 313.36 543.827 314.44 543.827C316.747 543.827 319.013 542.853 320.6 541.053C322.933 538.4 323.307 534.533 321.507 531.48C318.747 526.787 314.16 520.147 306.24 516.773C300.627 514.387 297.107 511.933 295.76 509.507C294.787 507.76 294.747 505.653 294.773 502.093C294.8 496.32 294.84 488.733 288.307 479.893C288.373 477.76 287.613 475.613 286.027 473.96C283.4 471.227 281.4 468.147 280.107 464.813C278.88 461.653 275.84 459.587 272.467 459.587V459.587ZM272.467 467.787C274.013 471.76 276.44 475.813 280.12 479.64L278.6 481.093C286.64 489.453 286.613 495.853 286.573 502.053C286.533 509.88 286.493 517.267 303.027 524.32C308.027 526.44 311.533 530.68 314.44 535.64C304.773 531.493 294.28 527.6 282.987 524.2L282.387 526.213C279.733 525.573 277.067 525.28 274.4 525.28C239.307 525.28 204.187 577.04 210.133 598.293C210.587 599.92 211.267 601.427 212.147 602.827C197.387 585.267 205.68 546.627 242.84 513.187C260.853 496.973 267.92 480.987 272.467 467.787" fill="#242424"/>
<path d="M365.6 568.547C363.427 568.547 361.293 569.413 359.72 571.027C357.533 573.267 356.827 576.573 357.88 579.52C359.134 582.987 360.214 586.053 361.107 588.653C330.547 591.72 248.227 594.027 213.587 594.76C213.107 594.68 212.627 594.64 212.133 594.64C210.467 594.64 208.787 595.147 207.347 596.187C203.867 598.693 202.907 603.48 205.174 607.133C210.8 616.253 222.107 622.613 239.72 626.573C253.2 629.587 267.92 630.68 278.667 631.467C281.56 631.68 284.054 631.867 286.214 632.067C287.72 632.2 289.693 632.387 292.027 632.613C307.987 634.16 341.2 637.373 369.387 637.373C382.227 637.373 392.734 636.693 400.614 635.347C412.187 633.373 419.027 629.84 422.147 624.227C422.827 623 423.174 621.64 423.174 620.24C423.174 604.48 397.493 581.32 389.627 574.587C388.267 573.427 386.573 572.747 384.787 572.64C384.613 572.627 384.454 572.627 384.28 572.627C383.947 572.627 383.6 572.653 383.267 572.693C382.76 572.52 382.253 572.387 381.72 572.32C377.733 571.747 373.174 570.627 368.174 568.96C367.334 568.68 366.467 568.547 365.6 568.547V568.547ZM365.6 576.747C370.747 578.453 375.88 579.76 380.574 580.427C381.387 581.107 382.187 581.773 382.933 582.413L384.28 580.827H384.293C404.067 597.693 414.987 613.067 414.987 620.24C411.2 627.067 392 629.173 369.387 629.173C337.467 629.173 298.733 624.973 286.96 623.893C268.267 622.2 223.534 621.28 212.147 602.827L212.267 602.987C212.267 602.987 350.053 600.12 372 595.413C372 595.413 369.733 588.2 365.6 576.747" fill="#242424"/>
<path d="M454.76 594.64C471.573 589.84 486.68 577.253 499.333 565.68C502.546 562.733 505.666 559.707 508.666 556.56C510.04 555.12 511.386 553.667 512.706 552.173C514 550.72 514.48 548.84 516.173 550.24C517.226 551.12 519 548.267 520.026 547.427C521.653 546.08 523.48 544.96 525.426 544.107C529.666 542.253 534.333 541.64 538.92 541.267C549.453 540.413 559.986 540.187 569.693 535.427C580.706 530.013 591.466 524.107 602.533 518.787C605.173 517.52 607.826 516.267 610.48 515.027C611.8 514.4 613.133 513.787 614.453 513.173C616.2 512.373 615.92 512.733 617.146 513.907C620.16 516.84 623.306 519.627 626.573 522.293C633.173 527.667 640.226 532.48 647.613 536.707C658.746 543.067 670.613 548.067 682.84 551.853C689.64 553.96 696.56 555.693 703.533 557.107C706.906 557.787 711.866 559.867 715.146 558.453C723.813 554.733 733.253 552.6 742.413 550.52C754.92 547.68 767.573 545.427 780.24 543.453C779.386 549.4 778.546 558.453 774.546 563.307C771.613 566.88 766.706 569.04 762.6 570.867C745.053 578.667 725.546 582.56 706.786 586.227C663.546 594.68 619.64 599.693 575.866 604.547C550.64 607.347 525.426 610.773 500.16 613.24C478.106 615.387 454.293 617.4 432.48 612.347C434.453 607.48 437.546 603.107 441 599.16C441.866 598.16 442.733 597.253 443.293 596.04C444.093 594.267 444.573 595.08 446.386 595.267C449.186 595.56 452.04 595.413 454.76 594.64C473.973 589.147 452.893 595.173 454.76 594.64V594.64ZM797.186 536.04C793.64 532.453 788.613 533.893 784.24 534.56C779.533 535.267 774.826 536 770.133 536.787C751.946 539.853 733.333 543.133 715.92 549.373C714.92 549.733 713.933 550.107 712.946 550.507C710.4 550.08 707.866 549.613 705.333 549.107C700.026 548.04 694.746 546.773 689.52 545.28C680 542.573 670.68 539.12 661.733 534.84C653.24 530.773 645.106 525.96 637.506 520.387C633.946 517.773 630.493 514.987 627.173 512.04C623.866 509.107 620.626 504.373 615.773 504.373C610.813 504.373 604.933 508.56 600.56 510.653C594.906 513.347 589.28 516.12 583.68 518.933C573.346 524.16 563.6 530.56 551.893 532.027C541.973 533.28 531.546 532.493 522.173 536.56C519.88 537.56 517.706 538.84 515.72 540.36C514.12 541.587 512.12 541.453 510.4 542.667C506.866 545.16 504.093 549.573 501.053 552.667C488.573 565.373 473.72 578.2 457.12 585.12C453.386 586.667 449.84 587.6 445.786 586.92C441.253 586.173 436.12 582.587 431.493 583.907C426.8 585.253 423.36 591.28 420.826 595.12C417.866 599.587 415.426 604.427 413.866 609.56C411.826 616.307 410.68 623.093 417.88 626.867C420.573 628.28 423.56 629.173 426.48 629.92C443.2 634.24 461.133 634.093 478.253 633.347C499.093 632.453 519.68 629.413 540.386 627.093C563.466 624.52 586.573 622.173 609.64 619.48C651.093 614.64 692.933 609.613 733.573 599.867C749.853 595.96 767.866 591.573 781.746 581.787C787.746 577.56 791.2 572.533 793.666 565.693C795.533 560.52 797.053 555.227 798.2 549.84C799.186 545.267 800.933 539.84 797.186 536.04C795.64 534.467 799.013 537.893 797.186 536.04" fill="#242424"/>
<path d="M1362.37 364.84C1361.67 364.84 1360.93 364.947 1360.21 365.147C1356.04 366.28 1353.47 370.48 1354.36 374.72C1358.51 394.6 1343.73 429.853 1316.72 464.52C1305.01 479.547 1291.91 493.147 1279.8 502.8C1263.71 515.653 1254.39 517.853 1250.28 518.027L1250.05 518.04C1159.69 524.213 1074.09 527.213 988.373 527.213C951.146 527.213 921.373 526.653 897.453 526.213C882.626 525.933 870.906 525.72 861.733 525.72C859.533 525.72 857.586 525.733 855.786 525.76C854.973 525.773 854.186 525.893 853.426 526.133C852.746 525.96 852.04 525.867 851.32 525.867H851.04H850.88L850.586 525.88L850.466 525.893H850.413C850.053 525.907 849.693 525.92 849.346 525.933L849.066 525.947H848.96C848.68 525.96 848.4 525.987 848.12 526L847.733 526.013C847.426 526.04 847.133 526.053 846.853 526.067L846.786 526.08L846.6 526.093C846.226 526.12 845.866 526.147 845.506 526.173L845.36 526.187H845.32L845.226 526.2L845 526.227C843.8 526.373 842.666 526.773 841.653 527.413C840.773 527.96 839.933 528.493 839.106 529.027C838.693 528.96 838.266 528.92 837.84 528.92C836.24 528.92 834.68 529.387 833.32 530.28C822.946 537.133 812.76 544.573 803.04 552.4L802.96 552.453C801.373 553.733 799.76 555.053 798.16 556.387L798.133 556.413L797.653 556.8L797.64 556.827L797.373 557.04L797.346 557.067L797.293 557.107L797.28 557.12L797.24 557.16H797.226L797.173 557.2C793.706 560.107 793.253 565.28 796.16 568.747C797.44 570.293 799.173 571.24 801.013 571.56C800.466 574.307 799.44 577.787 797.666 582.147C794.746 589.307 792.306 597.427 796.333 603.4C797.626 605.333 800.706 608.56 806.76 608.56C813.68 608.56 822.813 604.227 835.466 598.213C850.32 591.16 868.8 582.387 884.386 581.08C891.226 580.507 897.04 580.213 901.693 580.213C902.013 580.213 902.306 580.213 902.6 580.227C901.84 580.68 901.026 581.16 900.12 581.68C893.586 585.413 889.413 587.987 886.6 590.013C884.32 591.667 878.253 596.04 880.013 602.68C880.613 604.933 882.6 608.88 889.186 609.827C890.866 610.067 892.973 610.16 896.226 610.16C897.706 610.16 899.346 610.147 901.08 610.12C903.066 610.093 905.32 610.067 907.666 610.067C914.226 610.067 924.106 610.267 934.12 611.987C938.893 612.8 941.013 614.173 941.573 614.773C941.24 616.373 937.786 621.707 924.973 629.147C922.32 630.693 914.226 635.387 915.173 643.6C916.013 650.733 923.2 653.92 925.56 654.973C929.213 656.587 933.76 657.973 938.146 659.307L938.986 659.56C939.76 659.8 940.56 659.907 941.373 659.907C941.56 659.907 941.76 659.907 941.96 659.893C966.466 658.133 995.2 656.333 1022.45 656.333C1082.65 656.333 1142.72 641.853 1195.71 629.08C1235.36 619.52 1272.83 610.493 1304.03 609.08C1342.17 607.36 1377.07 601.04 1402.29 591.28C1439.79 576.773 1447.65 558.24 1447.65 545.253C1447.65 524.147 1442.8 503.24 1432.83 481.373C1424.19 462.4 1412.87 445.067 1401.92 428.307C1389.01 408.547 1376.81 389.88 1370.13 370.387C1368.97 367 1365.8 364.84 1362.37 364.84V364.84ZM802.533 563.413L802.44 563.493L802.533 563.413ZM803.4 562.693C803.106 562.933 802.826 563.173 802.533 563.413C802.826 563.173 803.106 562.933 803.4 562.693ZM808.093 558.84C806.52 560.107 804.96 561.387 803.4 562.693C804.96 561.387 806.52 560.107 808.093 558.84ZM1362.37 373.04C1381.05 427.48 1439.47 473.987 1439.45 545.253C1439.45 576.76 1377.73 597.56 1303.65 600.893C1229.59 604.24 1126.71 648.133 1022.45 648.133C996.733 648.133 969.16 649.72 941.373 651.72C928.426 647.787 915.493 644.12 929.093 636.227C957.44 619.773 953.773 607.04 935.506 603.907C925.44 602.187 915.693 601.88 907.666 601.88C903.253 601.88 899.36 601.973 896.226 601.973C884.626 601.973 883.346 600.707 904.186 588.787C925.813 576.44 920.6 572.027 901.693 572.027C896.6 572.027 890.52 572.347 883.706 572.92C854.493 575.36 818.96 600.373 806.76 600.373C801.866 600.373 800.733 596.347 805.253 585.24C810.6 572.12 810.666 563.92 808.093 558.84C817.72 551.093 827.653 543.84 837.84 537.12L838.986 538.867C841.32 537.333 843.653 535.84 846.013 534.347L846.186 534.333C846.506 534.307 846.84 534.28 847.173 534.267L847.386 534.253C847.653 534.227 847.933 534.213 848.213 534.2L848.573 534.173C848.826 534.16 849.093 534.147 849.36 534.133L849.706 534.12C850.04 534.107 850.373 534.093 850.72 534.08L850.893 534.067C851.04 534.067 851.186 534.067 851.32 534.053C855.373 543.08 860.653 551.853 867.16 560.253L870.48 557.68C864.573 550.053 859.72 542.107 855.906 533.947C857.706 533.92 859.64 533.92 861.733 533.92C885.386 533.92 927.773 535.413 988.373 535.413C1054.39 535.413 1142.03 533.627 1250.61 526.213C1289.08 524.613 1372.65 422.307 1362.37 373.04" fill="#242424"/>
<path d="M944.173 644.013C939.853 642.453 933.773 644.053 929.293 644.387C923.106 644.853 916.933 645.333 910.746 645.813C898.706 646.733 886.68 647.667 874.64 648.52C856.413 649.8 838.16 650.907 819.893 651.347C813.013 651.507 806.133 651.573 799.253 651.48C792.373 651.4 785.56 650.707 778.693 650.707C765.44 649.8 752.053 648.173 739.333 644.187C748.066 631.747 757.56 619.827 767.68 608.507C773.613 601.867 779.773 595.453 786.146 589.24C792.453 583.093 799.52 577.64 805.72 571.44C807.946 569.547 810.08 567.813 810.546 564.68C811.2 560.2 807.946 555.907 803.426 555.36C800.173 554.96 797.333 556.733 795.106 558.947C793 560.733 790.92 562.547 788.853 564.373C788.373 564.8 785.506 566.733 785.506 567.36C772.6 579.04 760.453 591.56 749.16 604.8C740.146 615.373 731.68 626.4 723.786 637.84C720.92 640.707 717.76 645.707 718.72 649.987C719.68 654.067 723.066 655.587 726.626 657.027C741.56 663.107 757.826 665.493 773.786 666.773C785.413 666.773 796.986 667.973 808.653 667.907C846.48 667.68 884.24 664.267 921.933 661.387C926.226 661.053 930.52 660.733 934.813 660.413C938.32 660.16 942.72 660.587 945.786 658.627C951.386 655.027 950.426 646.293 944.173 644.013C943.96 643.947 947.813 645.333 944.173 644.013" fill="#242424"/>
<path d="M332.52 311.587C383.267 295.133 459.8 263.587 459.8 263.587C476.707 191.8 532.96 150.187 532.96 150.187C558.947 191.853 579.2 209.213 595.133 287.36C629.427 298.347 636.587 317.267 635.373 328.52C632.64 354.12 660.493 350.467 650.093 379.28C645.76 391.293 671.96 388.88 652.613 410.36C647.2 416.373 668.067 431.973 660.68 438.253C638.12 457.467 662.107 490.387 638.12 500.44C614.053 510.533 590.56 521.933 569.987 532.907C549.413 543.88 528.84 532.907 515.12 549.373C501.4 565.827 473.973 589.147 454.76 594.64C435.56 600.12 411.787 574.52 393.947 580C376.12 585.493 334.053 564.92 327.2 555.307C320.333 545.707 316.72 527.867 303.853 522.387C275.987 510.507 299.173 499.453 280.12 479.64C263.64 462.493 272.32 441 272.32 441C244.893 387.96 185.44 365.093 176.307 306.573C233.92 289.2 286.04 292.853 332.52 311.587" fill="#FFCC88"/>
<path d="M567.933 290.8C539.813 274.333 519.24 283.253 515.813 277.76C506.2 241.413 532.96 212.613 532.96 212.613C543.24 233.187 536.387 254.44 549.413 268.16C562.44 281.88 567.933 290.8 567.933 290.8Z" fill="#242424"/>
<path d="M280.56 419.733C277.12 384.76 298.387 366.934 291.533 359.387C284.667 351.84 253.12 341.547 229.12 342.92C245.573 357.32 262.987 361.013 266.493 379.28C270.787 401.693 280.56 419.733 280.56 419.733" fill="#242424"/>
<path d="M436.253 465.693C419.093 489.013 390.293 486.96 390.293 486.96C422.533 497.24 434.88 483.52 436.253 465.693Z" fill="#242424"/>
<path d="M340.24 426L340.186 423.96C340.16 422.707 339.92 393.013 379.44 372.173L381.253 371.213L385.12 378.56L383.307 379.52C348.613 397.813 348.493 423.507 348.493 423.773L348.507 425.787L340.24 426" fill="#242424"/>
<path d="M500.987 435.627C529.92 435.987 545.64 411.76 545.64 411.76C534.427 443.693 516.04 445.28 500.987 435.627Z" fill="#242424"/>
<path d="M462.226 342.333L458.707 334.827L460.56 333.947C501 314.96 524.546 333.04 525.533 333.813L527.133 335.093L521.986 341.587L520.386 340.333C519.56 339.68 499.8 324.693 464.08 341.467L462.226 342.333" fill="#242424"/>
<path d="M500.32 502.44C477.013 501.187 467.973 494.507 489.52 481.693C507.36 471.093 513.24 479.92 500.32 502.44Z" fill="#242424"/>
<path d="M488.893 528.307C486.373 528.307 483.586 527.987 480.56 527.36L481.4 523.253C489.146 524.853 494.746 524.227 498.026 521.4C500.866 518.96 502.133 514.72 501.826 508.787L501.64 505.267L504.813 506.773C509.347 508.907 516.2 509.56 520.547 506.68C523.613 504.627 525.067 501.08 524.853 496.133L529.053 495.947C529.4 504.08 525.88 508.173 522.866 510.173C517.973 513.427 511.28 513.32 506.053 511.733C505.827 517.44 504.053 521.76 500.773 524.587C497.893 527.067 493.92 528.307 488.893 528.307" fill="#242424"/>
<path d="M579.6 268.16C643.373 243.467 743.933 244.213 790.013 243.467C864.386 242.267 1010.32 146.08 1174.24 186.547C1273 210.92 1340.24 320.493 1360.36 366.573C1380.47 412.653 1290.85 524.547 1250.61 526.213C985.413 544.333 845.12 528.787 839.627 535.933C738.12 546.373 714.027 558.973 714.027 558.973C584.16 538.853 562.68 428.067 567.933 372.8C573.186 317.547 497.373 299.987 579.6 268.16Z" fill="#FFCC88"/>
<path d="M852.12 447.773C826.933 469.533 813.666 489.84 740.533 502.44C740.533 502.44 738.48 530.173 737.64 551.64C756.213 547.147 787.827 541.267 839.627 535.933C840.493 534.813 844.707 534.253 852.24 534.027C851.253 520.64 834.133 505.893 852.12 447.773" fill="#FFCC88"/>
<path d="M212.267 602.987C197.333 585.493 205.573 546.733 242.84 513.187C280.12 479.64 270.493 447.053 288.787 438.08C335.427 479.413 372 595.413 372 595.413C350.053 600.12 212.267 602.987 212.267 602.987Z" fill="#FFCC88"/>
<path d="M866.786 563.133L865.533 561.507C838.08 526.027 831.96 484.227 848.293 443.827C868.066 394.933 917.413 356.867 971.106 349.107L973.133 348.813L974.32 357.027L972.293 357.32C921.426 364.68 874.693 400.693 855.986 446.933C840.8 484.493 846.52 523.373 872.093 556.427L873.346 558.053L866.786 563.133" fill="#242424"/>
<path d="M325 559.4L323.813 557.733C321.4 554.333 319.466 550.267 317.426 545.973C313.533 537.773 309.52 529.307 302.226 526.2C284.44 518.613 284.48 510.187 284.533 502.04C284.56 495.987 284.586 490.28 277.133 482.52L275.707 481.04L281.693 475.28L283.107 476.76C292.907 486.947 292.866 495.693 292.826 502.08C292.8 508.987 292.773 513.147 305.48 518.56C315.667 522.907 320.586 533.267 324.92 542.413C326.8 546.36 328.573 550.107 330.573 552.907L331.76 554.573L325 559.4" fill="#242424"/>
<path d="M517 553.6L510.626 548.28L511.933 546.707C520.746 536.133 532.12 535.413 543.12 534.72C551.306 534.187 559.773 533.653 568.04 529.24C590.507 517.267 614.186 505.987 636.52 496.613C646.093 492.6 645.96 484.107 645.773 472.347C645.587 459.92 645.373 445.84 657.986 435.093C659.053 434.187 654.787 427.787 653.373 425.68C649.36 419.653 644.8 412.84 649.533 407.587C655.08 401.413 655.76 398.293 655.666 396.987C655.546 395.427 654.133 394.173 651.827 392.253C648.52 389.48 643.506 385.307 646.186 377.867C650.973 364.613 646.88 360.173 641.2 354.027C636.12 348.52 629.786 341.68 631.253 328.08C632.493 316.48 623.32 300.747 593.88 291.32L591.92 290.693L594.453 282.787L596.4 283.413C630.613 294.36 641.093 314.12 639.507 328.96C638.453 338.813 642.547 343.253 647.293 348.4C653.48 355.093 660.493 362.693 654 380.68C653.413 382.307 653.613 382.933 657.146 385.867C660.013 388.253 663.573 391.227 663.946 396.4C664.28 401.147 661.706 406.413 655.853 412.96C655.853 414.44 658.826 418.893 660.28 421.067C664.413 427.253 670.067 435.72 663.373 441.413C653.733 449.627 653.906 460.6 654.08 472.227C654.266 484.347 654.466 498.093 639.733 504.267C617.626 513.547 594.186 524.707 571.946 536.573C562.093 541.827 552.293 542.453 543.653 543C533.133 543.667 524.84 544.187 518.307 552.027L517 553.6Z" fill="#242424"/>
<path d="M282.587 526.28C359.374 549.48 409.24 598.84 414.52 617.333C415.094 619.36 414.347 621.52 412.627 622.76C395 635.507 305.947 625.627 286.96 623.893C266.84 622.067 216.547 621.16 210.133 598.293C203.747 575.48 244.734 517.44 282.174 526.16C282.32 526.2 282.454 526.227 282.587 526.28" fill="#FFCC88"/>
<path d="M386.507 582.667C370.48 568.987 332.453 543.493 281.773 528.227L282.987 524.2C334.4 539.693 381.933 565.587 398.213 579.48L386.507 582.667" fill="#242424"/>
<path d="M778.04 407.64C787.187 461.573 797.24 534.733 782.613 565.827C767.973 596.92 573.973 611.907 522.547 618.867C443.107 629.613 422.573 617.707 422.573 617.707C428.013 578.867 499.613 543.133 568.133 521.12C601.88 510.293 637.52 491.627 637.52 491.627C643.613 427.44 778.04 407.64 778.04 407.64" fill="#FFCC88"/>
<path d="M464.32 631.707C432.307 631.707 422.12 626.093 421.52 625.76L420.307 625.04L417.72 611.08C423.88 567.04 518.693 543.773 573 526.333L574.293 530.333C485 559 421.053 584.36 424.92 622.68C430.493 624.84 455.333 632.067 522.253 623.027C531.56 621.76 545.813 620.24 562.307 618.493C600.467 614.427 652.72 608.853 696.853 601.027C760.867 589.667 775.067 578.28 777.96 570.987C787.547 546.827 788.84 526.2 785.16 493.147L790.573 491.133C794.32 524.853 794.48 547.867 784.56 572.84C774.547 598.08 664.813 611.8 562.747 622.667C546.28 624.427 532.067 625.933 522.827 627.187C498.027 630.547 478.907 631.707 464.32 631.707Z" fill="#242424"/>
<path d="M1360.36 366.573C1376.36 423.853 1439.47 471.173 1439.45 545.253C1439.45 576.76 1377.73 597.56 1303.65 600.893C1229.59 604.24 1126.71 648.133 1022.45 648.133C918.2 648.133 783.48 674.2 726.693 648.133C787.88 556.227 881.16 497.52 979.92 480.24C1078.69 462.947 1201.72 509.16 1237.81 513.147C1273.91 517.12 1303.65 469.813 1302.28 465.693C1299.55 435.52 1360.36 366.573 1360.36 366.573Z" fill="#FFCC88"/>
<path d="M726.693 648.133C769.466 667.773 856.48 657.827 941.373 651.72C928.426 647.787 915.493 644.133 929.093 636.227C957.44 619.773 953.773 607.04 935.506 603.907C899.4 597.72 867.466 609.773 904.186 588.787C931.64 573.107 915.84 570.227 883.706 572.92C842.773 576.347 789.453 624.053 805.253 585.24C810.6 572.12 810.666 563.92 808.093 558.84C777.36 583.6 749.746 613.507 726.693 648.133" fill="#F47D42"/>
<path d="M833.533 539.933L818.827 540.173C862.227 511.52 929.493 486.933 979.56 478.173C1053.15 465.293 1138.27 486.973 1194.6 501.32C1213.72 506.2 1228.81 510.04 1238.04 511.053C1253.93 512.813 1268.04 503.893 1277.09 496.107C1291.49 483.733 1300.12 468.573 1300.23 466.027C1300.23 466.027 1300.23 466.16 1300.29 466.36L1304.28 465.027C1305.44 468.507 1298.27 479.173 1293.16 485.493C1285.16 495.4 1263.72 518.12 1237.59 515.24C1228.07 514.187 1212.84 510.307 1193.57 505.4C1137.59 491.133 1053.43 472.533 980.733 485.253C931.227 493.92 876.467 511.587 833.533 539.933" fill="#242424"/>
<path d="M396.053 577.267C396.053 577.267 413.693 594.733 416.187 602.973C420.907 596.253 430.32 587.8 430.32 587.8L403.107 576.453L396.053 577.267Z" fill="#FFCC88"/>
<path d="M828.453 533.387C828.453 533.387 792.92 560.427 786.693 566.107C788.346 557.107 791.813 541.347 792.64 531.24C793.48 521.12 810.653 528.467 810.653 528.467L828.453 533.387" fill="#FFCC88"/>
</g>
<defs>
<clipPath id="clip0_3_174">
<rect width="1634" height="811" fill="white"/>
</clipPath>
</defs>
</svg>
