<svg width="1132" height="751" viewBox="0 0 1132 751" fill="none" xmlns="http://www.w3.org/2000/svg">
<g clip-path="url(#clip0_4_526)">
<path d="M163.761 198.694C172.178 191.36 181.037 187.467 191.327 188.04C200.867 188.587 208.618 192.574 213.262 201.427C215.014 204.76 216.835 208.08 218.685 211.36C221.243 215.92 225.218 218.707 230.237 219.747C235.973 220.947 241.754 222.053 247.569 222.747C269.595 225.4 277.658 251.774 269.021 267.227C261.396 280.88 249.452 287.587 234.421 289.6C231.645 289.96 228.798 290.04 225.998 289.907C224.001 289.827 222.922 290.494 222.078 292.254C217.598 301.6 210.653 308.64 201.217 312.8C187.29 318.947 173.579 318.84 161.782 308.2C152.989 300.28 148.907 290.16 152.613 278.147C153.982 273.707 155.959 269.467 157.586 265.107C158.934 261.493 160.302 257.88 161.379 254.187C161.677 253.16 161.306 251.6 160.661 250.707C155.062 242.987 151.177 234.667 151.467 224.88C151.791 214.013 156.969 205.467 163.761 198.694" fill="#FFAE4D"/>
<path d="M136.331 222.04C145.111 232.667 150.479 243.587 151.614 256.213C151.987 260.36 151.578 264.814 150.47 268.827C147.589 279.28 135.567 284.227 124.774 279.76C115.138 275.774 108.485 268.467 103.333 259.72C98.622 251.72 95.4366 243.147 95.99 233.667C96.6086 223.107 102.25 215.974 112.339 212.8C118.541 210.854 124.113 212.894 129.214 216.254C132.07 218.147 134.561 220.573 136.331 222.04Z" fill="#FFAE4D"/>
<path d="M224.367 205.454C215.933 195.72 210.365 184.76 210.055 171.587C209.781 159.88 218.194 149.893 229.522 148.68C236.022 147.987 241.589 150.667 246.244 154.813C257.352 164.733 263.698 177.32 265.591 192.04C266.445 198.68 266.007 205.24 261.697 210.907C257.381 216.573 249.325 219.147 242.203 217.24C234.934 215.307 229.261 211 224.367 205.454" fill="#FFAE4D"/>
<path d="M115.202 201.387C106.994 191.854 101.687 181.68 100.186 169.694C98.8193 158.774 103.613 149.734 113.578 145.414C121.187 142.12 128.235 144.494 134.409 149.094C145.878 157.667 152.926 169.187 155.746 183.24C157.11 190.027 156.962 196.694 153.369 202.894C148.306 211.614 137.003 214.96 127.687 210.414C125.241 209.227 122.847 207.84 120.655 206.24C118.531 204.694 116.697 202.747 115.202 201.387Z" fill="#FFAE4D"/>
<path d="M190.633 127.774C200.054 138.64 205.69 150.28 205.636 164.134C205.606 171.947 202.622 178.387 195.514 182.347C189.238 185.854 182.815 185.454 176.557 182.454C165.254 177.04 158.157 167.654 153.135 156.56C150.331 150.36 148.722 143.827 149.177 136.907C149.829 126.987 157.595 118.267 167.365 116.894C173.981 115.96 179.689 118.44 184.766 122.454C187.026 124.24 189.053 126.334 190.633 127.774" fill="#FFAE4D"/>
<path d="M982.147 202.133C991.28 204.333 998.254 208.52 1002.87 215.853C1007.13 222.667 1008.17 229.92 1004.36 237.413C1002.92 240.24 1001.53 243.093 1000.19 245.96C998.307 249.933 998.334 254.013 1000.05 257.973C1002.01 262.48 1004.08 266.987 1006.43 271.307C1015.32 287.707 1001.17 306.067 986.361 307.667C973.294 309.08 962.881 304.16 954.187 294.827C952.587 293.093 951.16 291.173 949.88 289.2C948.96 287.787 947.974 287.373 946.361 287.653C937.774 289.12 929.561 287.787 922.121 283.347C911.134 276.773 904.534 267.333 906.094 254.067C907.241 244.173 912.201 236.453 922.241 233.147C925.947 231.933 929.827 231.213 933.601 230.213C936.734 229.387 939.881 228.56 942.934 227.507C943.774 227.213 944.667 226.2 944.974 225.32C947.547 217.72 951.36 211.013 958.214 206.453C965.814 201.387 974.2 200.773 982.147 202.133" fill="#FFAE4D"/>
<path d="M952.801 194.68C949.774 205.88 944.894 214.88 936.801 221.787C934.134 224.067 930.881 225.947 927.587 227.147C919.014 230.254 909.774 224.414 907.587 214.84C905.641 206.294 907.401 198.187 910.894 190.387C914.094 183.267 918.414 176.92 925.187 172.68C932.734 167.96 940.361 168.36 947.454 173.734C951.814 177.04 953.121 181.854 953.294 186.987C953.387 189.867 952.934 192.76 952.801 194.68" fill="#FFAE4D"/>
<path d="M1007 246.987C1009.57 236.467 1014.37 227.32 1023.25 220.693C1031.16 214.813 1042.09 215.72 1048.44 222.893C1052.08 227.013 1052.95 232.133 1052.37 237.347C1050.97 249.8 1045.43 260.267 1036.25 268.733C1032.12 272.547 1027.4 275.44 1021.43 275.24C1015.44 275.027 1009.76 270.76 1007.6 264.947C1005.39 259.027 1005.57 253.04 1007 246.987" fill="#FFAE4D"/>
<path d="M956.667 170.147C959.214 159.88 963.614 151.294 971.107 144.427C977.921 138.174 986.454 137.067 994.267 141.8C1000.23 145.414 1002.04 151.4 1001.88 157.88C1001.59 169.907 997.107 180.347 988.841 189.12C984.854 193.36 980.214 196.507 974.214 197.054C965.761 197.827 957.974 191.694 956.561 183.107C956.187 180.84 955.961 178.534 956.001 176.254C956.027 174.04 956.467 171.827 956.667 170.147Z" fill="#FFAE4D"/>
<path d="M1043.85 186.054C1040.99 197.8 1035.75 207.333 1026.21 214.04C1020.85 217.813 1014.99 218.907 1008.8 215.96C1003.35 213.36 1000.49 208.76 999.507 203.013C997.721 192.627 1000.71 183.187 1005.87 174.347C1008.76 169.413 1012.45 165.12 1017.43 162.067C1024.55 157.694 1034.31 158.774 1040 164.8C1043.85 168.894 1044.93 174.013 1044.65 179.44C1044.52 181.867 1044.08 184.267 1043.85 186.054" fill="#FFAE4D"/>
<path d="M854.361 605.827C856.814 602.947 859.601 601.2 863.081 600.867C866.321 600.574 869.121 601.52 871.134 604.267C871.894 605.307 872.667 606.32 873.454 607.334C874.547 608.747 876.014 609.48 877.761 609.574C879.747 609.694 881.747 609.774 883.734 609.72C891.267 609.507 895.307 617.96 893.174 623.587C891.294 628.56 887.614 631.414 882.667 632.854C881.747 633.107 880.801 633.28 879.854 633.374C879.174 633.44 878.854 633.734 878.654 634.36C877.614 637.72 875.641 640.44 872.667 642.307C868.294 645.08 863.681 645.734 859.187 642.747C855.827 640.52 853.947 637.32 854.601 633.107C854.827 631.547 855.281 630.014 855.614 628.467C855.881 627.187 856.161 625.907 856.334 624.614C856.387 624.254 856.187 623.747 855.921 623.48C853.654 621.16 851.934 618.56 851.534 615.254C851.094 611.587 852.414 608.454 854.361 605.827" fill="#FFAE4D"/>
<path d="M846.307 615.054C849.787 618.187 852.147 621.6 853.161 625.774C853.494 627.16 853.574 628.667 853.401 630.08C852.961 633.734 849.174 636 845.321 635.04C841.881 634.187 839.267 632.067 837.107 629.387C835.121 626.934 833.614 624.214 833.334 621C833.001 617.414 834.547 614.734 837.774 613.16C839.761 612.187 841.734 612.6 843.627 613.467C844.681 613.96 845.641 614.654 846.307 615.054" fill="#FFAE4D"/>
<path d="M875.067 605.067C871.747 602.213 869.321 598.813 868.561 594.4C867.881 590.48 870.201 586.707 873.947 585.72C876.107 585.16 878.107 585.787 879.881 586.947C884.107 589.72 886.881 593.64 888.254 598.493C888.867 600.68 889.054 602.907 887.894 605.027C886.721 607.147 884.147 608.413 881.654 608.133C879.107 607.853 876.987 606.693 875.067 605.067Z" fill="#FFAE4D"/>
<path d="M838.161 609.173C834.934 606.387 832.641 603.227 831.534 599.28C830.521 595.68 831.681 592.4 834.814 590.44C837.201 588.96 839.694 589.4 842.001 590.64C846.281 592.947 849.227 596.467 850.881 601.04C851.681 603.253 851.974 605.507 851.067 607.773C849.814 610.96 846.174 612.64 842.814 611.587C841.934 611.307 841.054 610.96 840.241 610.533C839.454 610.12 838.734 609.56 838.161 609.173Z" fill="#FFAE4D"/>
<path d="M859.827 580.64C863.547 583.827 866.014 587.453 866.694 592.12C867.081 594.747 866.4 597.053 864.214 598.747C862.267 600.24 860.094 600.427 857.84 599.733C853.774 598.48 850.907 595.68 848.667 592.2C847.414 590.267 846.547 588.147 846.347 585.8C846.067 582.427 848.24 579.107 851.467 578.16C853.64 577.507 855.681 578.053 857.587 579.16C858.441 579.64 859.227 580.24 859.827 580.64" fill="#FFAE4D"/>
<path d="M269.483 599.494C273.274 601.987 275.765 605.027 276.666 609.107C277.502 612.907 276.791 616.374 273.835 619.16C272.719 620.214 271.626 621.28 270.541 622.374C269.039 623.867 268.386 625.734 268.525 627.814C268.685 630.187 268.887 632.56 269.25 634.92C270.625 643.827 261.193 649.867 254.199 648.187C248.025 646.694 244.087 642.76 241.657 637.094C241.209 636.054 240.869 634.947 240.61 633.84C240.426 633.04 240.043 632.694 239.262 632.56C235.118 631.827 231.601 629.88 228.939 626.654C225.013 621.867 223.55 616.494 226.418 610.72C228.555 606.414 232.067 603.707 237.171 603.84C239.058 603.88 240.937 604.2 242.822 604.347C244.382 604.48 245.946 604.627 247.51 604.64C247.941 604.64 248.511 604.334 248.79 603.974C251.201 600.947 254.027 598.507 257.889 597.547C262.175 596.494 266.086 597.574 269.483 599.494Z" fill="#FFAE4D"/>
<path d="M257.343 591.32C254.145 595.92 250.459 599.213 245.646 601.04C244.062 601.64 242.278 601.973 240.582 601.973C236.178 602 232.927 597.827 233.493 593.12C233.998 588.92 236.125 585.507 238.983 582.533C241.597 579.813 244.601 577.627 248.37 576.813C252.573 575.893 255.979 577.32 258.327 580.92C259.771 583.134 259.581 585.533 258.823 587.907C258.401 589.227 257.719 590.467 257.343 591.32Z" fill="#FFAE4D"/>
<path d="M273.478 623.947C276.359 619.574 280.038 616.2 285.157 614.64C289.71 613.24 294.537 615.44 296.253 619.747C297.238 622.214 296.799 624.68 295.683 626.96C293.019 632.387 288.793 636.254 283.239 638.6C280.737 639.667 278.121 640.214 275.434 639.147C272.745 638.08 270.854 635.214 270.818 632.214C270.781 629.16 271.841 626.467 273.478 623.947" fill="#FFAE4D"/>
<path d="M263.107 580.787C265.938 576.533 269.337 573.347 273.862 571.44C277.986 569.707 282.049 570.6 284.829 574.027C286.951 576.64 286.797 579.653 285.669 582.573C283.574 588 279.837 592.027 274.649 594.667C272.141 595.947 269.518 596.613 266.701 595.88C262.731 594.867 260.187 590.8 260.941 586.667C261.139 585.573 261.418 584.493 261.805 583.453C262.181 582.453 262.742 581.52 263.107 580.787" fill="#FFAE4D"/>
<path d="M300.173 602.24C296.954 607.107 293.017 610.587 287.589 612.093C284.53 612.933 281.685 612.467 279.353 610.12C277.294 608.053 276.749 605.493 277.238 602.72C278.118 597.707 281.011 593.893 284.802 590.72C286.919 588.947 289.299 587.6 292.057 587.013C296.011 586.187 300.274 588.267 301.881 591.947C302.969 594.427 302.626 596.933 301.61 599.36C301.158 600.44 300.565 601.467 300.173 602.24" fill="#FFAE4D"/>
<path d="M760.854 405.68C788.587 389.573 803.694 364.827 803.414 336.013C803.201 315.72 795.001 296.667 779.681 280.827C781.014 276.987 781.694 272.893 781.654 268.733L781.361 239.573C781.187 221.427 767.441 206.28 749.401 204.347C727.481 201.987 709.267 202.813 694.001 206.867C687.481 201.413 679.174 198.414 670.641 198.494L647.227 198.733C642.441 198.787 637.787 199.8 633.481 201.64L560.174 202.373C559.067 202.387 557.961 202.454 556.867 202.56C552.867 201.347 548.641 200.827 544.387 201.08L491.401 204.173C481.161 204.76 471.961 209.694 465.761 217.294C463.947 216.36 462.027 215.56 460.014 214.92C450.014 211.787 438.55 210.414 424.953 210.76C424.831 210.76 424.71 210.76 424.59 210.76C408.946 211.307 394.331 214.293 381.165 219.64C360.447 228.027 344.979 241.333 335.189 259.2C325.982 276 322.371 296.12 324.453 318.947C328.022 358.787 344.198 381.067 361.375 393.533C356.99 399.4 354.371 406.613 354.249 414.347L352.43 528.454C352.277 538.067 355.999 547.347 362.758 554.187C369.482 560.987 378.65 564.813 388.213 564.813H388.358L415.811 564.707C423.451 564.667 430.823 562.2 436.894 557.72C442.231 560.4 448.227 561.747 454.361 561.507L482.454 560.4C489.041 560.147 495.241 558.093 500.494 554.693C506.734 559.72 514.627 562.654 522.961 562.654C525.054 562.654 527.174 562.467 529.307 562.08L544.254 559.4C547.627 560.453 551.187 561.013 554.841 561.013C555.734 561.013 556.641 560.973 557.547 560.907L587.934 558.64C595.174 558.093 601.854 555.4 607.294 551.147C609.681 551.52 612.121 551.64 614.601 551.507L647.627 549.693C649.467 549.587 651.267 549.347 653.041 548.973C658.001 554.733 664.787 558.92 672.601 560.6C680.067 562.213 687.467 563.013 694.734 563.013C711.334 563.013 727.227 558.827 741.507 550.6L741.627 550.533C765.681 536.56 778.787 514.92 778.534 489.613C778.374 473.28 772.361 457.92 761.081 444.867C761.534 442.52 761.761 440.107 761.734 437.667L761.507 415.147C761.481 412 761.027 408.947 760.227 406.027C760.401 405.934 760.574 405.84 760.747 405.747L760.854 405.68" fill="#F47D42"/>
<path d="M772.854 396.347C800.587 380.24 815.694 355.494 815.414 326.68C815.201 306.387 807.001 287.334 791.681 271.494C793.014 267.654 793.694 263.56 793.654 259.4L793.361 230.24C793.187 212.094 779.441 196.947 761.401 195.014C739.481 192.654 721.267 193.48 706.001 197.534C699.481 192.08 691.174 189.08 682.641 189.16L659.227 189.4C654.441 189.454 649.787 190.467 645.481 192.307L572.174 193.04C571.067 193.054 569.961 193.12 568.867 193.227C564.867 192.014 560.641 191.494 556.387 191.747L503.401 194.84C493.161 195.427 483.961 200.36 477.761 207.96C475.947 207.027 474.027 206.227 472.014 205.587C462.014 202.454 450.547 201.08 436.953 201.427C436.831 201.427 436.71 201.427 436.59 201.427C420.946 201.974 406.331 204.96 393.165 210.307C372.447 218.694 356.979 232 347.189 249.867C337.982 266.667 334.371 286.787 336.453 309.614C340.022 349.454 356.198 371.734 373.375 384.2C368.99 390.067 366.371 397.28 366.249 405.014L364.43 519.12C364.277 528.734 367.998 538.014 374.758 544.854C381.482 551.654 390.65 555.48 400.213 555.48H400.358L427.811 555.374C435.451 555.334 442.823 552.867 448.894 548.387C454.227 551.067 460.227 552.414 466.361 552.174L494.454 551.067C501.041 550.814 507.241 548.76 512.494 545.36C518.734 550.387 526.627 553.32 534.961 553.32C537.054 553.32 539.174 553.133 541.307 552.747L556.254 550.067C559.627 551.12 563.187 551.68 566.841 551.68C567.734 551.68 568.641 551.64 569.547 551.574L599.934 549.307C607.174 548.76 613.854 546.067 619.294 541.813C621.681 542.187 624.121 542.307 626.601 542.174L659.627 540.36C661.467 540.254 663.267 540.014 665.041 539.64C670.001 545.4 676.787 549.587 684.601 551.267C692.067 552.88 699.467 553.68 706.734 553.68C723.334 553.68 739.227 549.494 753.507 541.267L753.627 541.2C777.681 527.227 790.787 505.587 790.534 480.28C790.374 463.947 784.361 448.587 773.081 435.534C773.534 433.187 773.761 430.774 773.734 428.334L773.507 405.814C773.481 402.667 773.027 399.614 772.227 396.694C772.401 396.6 772.574 396.507 772.747 396.414L772.854 396.347" fill="#FFCC88"/>
<path d="M440.95 204.894C439.667 204.894 438.365 204.907 437.041 204.947H436.703C421.481 205.48 407.274 208.387 394.489 213.56C374.541 221.64 359.666 234.427 350.275 251.56C341.411 267.734 337.939 287.147 339.958 309.294C342.903 342.16 354.842 366.4 375.442 381.347L378.331 383.44L376.197 386.307C372.099 391.787 369.877 398.28 369.767 405.067L367.95 519.173C367.813 527.787 371.206 536.24 377.262 542.373C383.282 548.467 391.649 551.96 400.213 551.96H400.358L427.797 551.854C434.682 551.827 441.254 549.64 446.801 545.547L448.547 544.267L450.481 545.24C455.347 547.693 460.801 548.867 466.214 548.654L494.321 547.56C500.107 547.32 505.734 545.547 510.587 542.4L512.721 541.013L514.707 542.613C521.947 548.453 531.561 550.92 540.681 549.28L556.481 546.454L557.307 546.707C561.161 547.907 565.201 548.374 569.281 548.067L599.667 545.787C606.054 545.307 612.081 542.973 617.121 539.04L618.321 538.107L619.814 538.334C622.001 538.667 624.214 538.774 626.414 538.654L659.441 536.84C661.027 536.76 662.667 536.534 664.321 536.187L666.347 535.76L667.707 537.334C672.334 542.707 678.427 546.334 685.347 547.827C692.507 549.374 699.707 550.16 706.734 550.16C722.854 550.16 738.001 546.133 751.747 538.213C774.774 524.84 787.254 504.293 787.014 480.307C786.867 464.907 781.121 450.213 770.414 437.84L769.294 436.547L769.627 434.867C770.041 432.72 770.241 430.533 770.214 428.373L769.987 405.854C769.961 403.08 769.574 400.32 768.841 397.627L768.107 394.973L770.987 393.36L772.854 396.347L771.094 393.307C797.681 377.853 812.161 354.214 811.894 326.72C811.694 307.36 803.827 289.12 789.147 273.947L787.641 272.387L788.347 270.347C789.574 266.827 790.174 263.16 790.134 259.44L789.841 230.267C789.681 213.907 777.294 200.253 761.027 198.507C739.494 196.2 721.774 196.987 706.894 200.933L705.134 201.413L703.734 200.24C697.827 195.293 690.347 192.587 682.681 192.694L659.254 192.92C654.987 192.96 650.827 193.84 646.867 195.547L646.227 195.813L572.214 196.56C571.254 196.574 570.254 196.627 569.227 196.733L568.521 196.813L567.841 196.6C564.187 195.493 560.401 195.04 556.587 195.267L503.601 198.347C494.627 198.867 486.201 203.187 480.494 210.187L478.681 212.4L476.147 211.094C474.481 210.227 472.734 209.507 470.961 208.947C462.294 206.227 452.441 204.894 440.95 204.894V204.894ZM400.373 559H400.213C389.779 559 379.589 554.747 372.254 547.32C364.878 539.854 360.742 529.56 360.91 519.067L362.729 404.96C362.842 397.84 364.855 391 368.583 384.987C347.935 368.694 335.95 343.454 332.946 309.92C330.799 286.374 334.553 265.6 344.102 248.173C354.293 229.587 370.354 215.747 391.843 207.04C405.395 201.547 420.409 198.48 436.466 197.92L436.858 197.907C450.841 197.56 462.681 198.973 473.067 202.24C474.361 202.64 475.627 203.107 476.867 203.64C483.734 196.36 493.174 191.907 503.201 191.32L556.187 188.24C560.587 187.987 564.961 188.453 569.214 189.667C570.214 189.573 571.187 189.534 572.147 189.52L644.761 188.8C649.374 186.907 654.227 185.933 659.187 185.88L682.601 185.64C691.321 185.52 699.881 188.4 706.827 193.694C722.174 189.907 740.174 189.187 761.774 191.507C781.587 193.64 796.681 210.28 796.881 230.2L797.174 259.373C797.214 263.173 796.707 266.934 795.654 270.587C810.681 286.76 818.721 306.107 818.934 326.64C819.227 356.213 804.094 381.64 776.254 398.427C776.747 400.854 777.014 403.32 777.027 405.787L777.254 428.294C777.281 430.374 777.134 432.454 776.827 434.52C787.934 447.907 793.894 463.68 794.054 480.24C794.321 506.867 780.587 529.6 755.401 544.24L755.281 544.307C740.427 552.867 724.107 557.2 706.734 557.2C699.214 557.2 691.521 556.36 683.854 554.707C676.107 553.04 669.201 549.16 663.747 543.454C662.427 543.667 661.107 543.8 659.814 543.867L626.801 545.68C624.614 545.8 622.427 545.734 620.254 545.494C614.374 549.747 607.467 552.267 600.201 552.813L569.801 555.08C565.147 555.44 560.507 554.96 556.054 553.68L541.921 556.213C539.627 556.627 537.281 556.84 534.961 556.84C526.854 556.84 518.894 554.28 512.281 549.6C506.881 552.627 500.814 554.347 494.601 554.587L466.494 555.694C460.587 555.934 454.667 554.8 449.241 552.427C442.863 556.627 435.503 558.854 427.826 558.894L400.373 559" fill="#FFE3C2"/>
<path d="M404.151 360.613C385.339 352.987 374.651 334.92 372.098 306.413C369.227 274.933 380.729 253.947 406.601 243.48C415.93 239.694 426.343 237.6 437.837 237.2C447.347 236.96 455.161 237.814 461.281 239.734L458.454 276.174L458.241 275.96C444.854 272.547 434.494 272.293 427.145 275.213C417.103 279.147 412.162 288.627 412.313 303.68C412.47 319.427 418.934 327.174 431.707 326.907C435.821 326.72 441.203 325.667 447.854 323.76L451.894 322.44L455.494 321.347C458.334 320.453 460.521 319.88 462.081 319.574L470.521 354.4C443.233 365.32 421.11 367.387 404.151 360.613" fill="#FF9022"/>
<path d="M536.147 252.187C534.161 252.347 532.454 252.507 531.041 252.667C529.907 252.813 528.987 252.974 528.281 253.12H527.641L527.214 253.347H527.001L520.254 302.173L544.294 300.867L536.147 252.187ZM505.481 230.56L558.467 227.48V227.693C558.614 227.973 558.827 228.613 559.121 229.6C560.014 232.853 561.414 238.307 563.334 245.947C569.254 269.88 579.107 310.667 592.881 368.293L560.147 374.16L550.534 328.48L515.641 330.747L505.827 371.293L469.427 372.733L505.481 230.56" fill="#FF9022"/>
<path d="M599.521 372.067L596.321 264.787L573.734 263.947L572.534 228.827L656.414 227.987L653.387 266.134L629.747 265.094L635.494 371.067L599.521 372.067" fill="#FF9022"/>
<path d="M683.001 224.96L680.547 277.36L665.654 278.36L659.574 225.187L683.001 224.96Z" fill="#FF9022"/>
<path d="M695.867 340.227C696.427 340.227 697.641 340.347 699.481 340.613L702.254 340.8L705.454 341.2C711.561 341.853 716.747 342.147 721.001 342.107C734.907 341.827 742.467 337.987 743.667 330.6C745.147 321.493 743.094 314.707 737.507 310.213C735.214 308.4 732.147 306.72 728.307 305.2L722.961 303.333L717.401 301.693C707.441 298.667 700.374 295.333 696.227 291.68C689.787 285.92 686.641 277.507 686.814 266.44C687.214 249.68 695.481 238.6 711.614 233.187C722.934 229.387 738.254 228.52 757.574 230.6L757.867 259.76C756.587 259.64 755.027 259.44 753.174 259.173L750.401 258.773L747.641 258.373C742.654 257.573 738.894 257.04 736.334 256.787C727.667 256.44 723.294 259.04 723.214 264.587C723.107 268.707 727.401 272.707 736.107 276.587C748.227 282.147 758.014 288.573 765.467 295.88C774.787 305.307 779.507 315.693 779.614 327.04C779.774 342.947 771.534 355.733 754.881 365.4C738.081 375.08 719.307 377.68 698.534 373.2L695.867 340.227" fill="#FF9022"/>
<path d="M425.267 460.427C430.438 462.574 434.758 461.707 438.227 457.827C441.37 454.4 443.021 449.667 443.182 443.64C443.45 437.614 442.087 432.747 439.091 429.054C435.761 424.814 431.143 423.44 425.241 424.92L425.267 460.427ZM400.214 519.694L402.031 405.587C421.602 400.894 436.281 400.374 446.067 404C459.707 408.907 466.641 421.934 466.854 443.08C467.014 458.974 462.187 469.974 452.387 476.094C448.681 478.44 444.307 480.014 439.281 480.84C435.67 481.534 431.617 481.787 427.123 481.614L427.667 519.587L400.214 519.694Z" fill="#FF9022"/>
<path d="M516.467 423.347C514.934 423.467 513.614 423.6 512.521 423.72C511.641 423.84 510.934 423.947 510.387 424.067H509.894L509.574 424.24H509.401L504.187 461.934L522.761 460.934L516.467 423.347ZM492.787 406.654L533.694 404.267V404.427C533.814 404.654 533.974 405.147 534.214 405.907C534.894 408.427 535.974 412.627 537.454 418.534C542.027 437.014 549.627 468.494 560.267 513L535.001 517.52L527.574 482.254L500.627 484L493.054 515.307L464.947 516.413L492.787 406.654" fill="#FF9022"/>
<path d="M548.201 424.347L572.827 420.974L581.561 472.013L581.894 472.174L591.427 422.76L618.321 416.24L638.614 473.907L652.147 412.787L680.347 421.054L657.667 504.627L624.641 506.427L606.481 465.854L597.267 513.613L566.867 515.894L548.201 424.347" fill="#FF9022"/>
<path d="M690.081 490.827C690.521 490.814 691.454 490.92 692.881 491.12L695.014 491.267L697.481 491.574C702.201 492.067 706.201 492.307 709.494 492.267C720.227 492.054 726.067 489.094 726.987 483.387C728.134 476.36 726.547 471.107 722.227 467.64C720.467 466.24 718.094 464.947 715.121 463.774L711.001 462.334L706.707 461.067C699.014 458.734 693.561 456.16 690.361 453.334C685.387 448.894 682.961 442.4 683.094 433.84C683.401 420.907 689.787 412.36 702.241 408.174C710.974 405.24 722.801 404.574 737.734 406.174L737.947 428.694C736.961 428.6 735.761 428.44 734.334 428.24L732.187 427.934L730.054 427.627C726.214 427 723.307 426.6 721.321 426.4C714.641 426.134 711.254 428.134 711.201 432.414C711.121 435.6 714.441 438.68 721.147 441.68C730.507 445.974 738.067 450.947 743.827 456.587C751.014 463.854 754.654 471.867 754.747 480.64C754.867 492.907 748.507 502.787 735.641 510.254C722.681 517.72 708.174 519.734 692.147 516.28L690.081 490.827" fill="#FF9022"/>
<path d="M410.018 361.787C391.206 354.16 380.518 336.094 377.963 307.587C375.094 276.107 386.595 255.12 412.467 244.654C421.797 240.867 432.21 238.773 443.707 238.373C453.214 238.133 461.027 238.987 467.147 240.907L464.321 277.347L464.107 277.133C450.734 273.72 440.361 273.467 433.011 276.373C422.97 280.307 418.029 289.8 418.179 304.854C418.337 320.6 424.801 328.347 437.574 328.08C441.687 327.893 447.067 326.84 453.721 324.933L457.761 323.613L461.361 322.507C464.201 321.627 466.387 321.04 467.947 320.747L476.387 355.573C449.094 366.493 426.977 368.56 410.018 361.787" fill="#242424"/>
<path d="M542.014 253.36C540.027 253.52 538.321 253.68 536.907 253.84C535.774 253.987 534.854 254.147 534.147 254.294H533.507L533.081 254.507L532.867 254.52L526.121 303.347L550.161 302.04L542.014 253.36ZM511.347 231.734L564.334 228.654V228.867C564.481 229.147 564.694 229.787 564.987 230.773C565.881 234.027 567.281 239.48 569.201 247.12C575.121 271.054 584.961 311.84 598.747 369.467L566.014 375.333L556.401 329.654L521.507 331.92L511.694 372.467L475.294 373.907L511.347 231.734" fill="#242424"/>
<path d="M605.387 373.24L602.187 265.96L579.601 265.12L578.401 230L662.28 229.16L659.254 267.307L635.614 266.267L641.361 372.24L605.387 373.24" fill="#242424"/>
<path d="M688.867 226.12L686.414 278.533L671.521 279.533L665.441 226.36L688.867 226.12" fill="#242424"/>
<path d="M701.734 341.4C702.294 341.4 703.507 341.52 705.347 341.787L708.121 341.973L711.321 342.373C717.428 343.027 722.614 343.32 726.867 343.28C740.774 343 748.334 339.16 749.534 331.773C751.014 322.667 748.947 315.88 743.374 311.387C741.081 309.573 738.014 307.893 734.161 306.373L728.827 304.507L723.267 302.867C713.307 299.84 706.241 296.507 702.094 292.853C695.654 287.093 692.507 278.68 692.681 267.613C693.081 250.853 701.347 239.773 717.481 234.36C728.801 230.56 744.121 229.693 763.441 231.773L763.734 260.933C762.454 260.813 760.894 260.613 759.041 260.347L756.267 259.947L753.494 259.547C748.521 258.747 744.761 258.213 742.201 257.96C733.534 257.613 729.161 260.213 729.081 265.747C728.974 269.88 733.267 273.88 741.974 277.76C754.094 283.32 763.881 289.747 771.334 297.053C780.654 306.48 785.374 316.867 785.481 328.213C785.641 344.12 777.401 356.907 760.747 366.573C743.947 376.253 725.161 378.853 704.401 374.373L701.734 341.4" fill="#242424"/>
<path d="M431.133 461.6C436.305 463.747 440.625 462.88 444.094 459C447.241 455.574 448.894 450.84 449.054 444.814C449.321 438.787 447.947 433.92 444.961 430.227C441.627 425.987 437.011 424.614 431.107 426.094L431.133 461.6ZM406.081 520.867L407.899 406.76C427.469 402.067 442.147 401.547 451.934 405.174C465.574 410.08 472.507 423.107 472.721 444.254C472.881 460.134 468.054 471.147 458.254 477.267C454.547 479.614 450.174 481.187 445.147 482.014C441.537 482.707 437.483 482.96 432.99 482.787L433.534 520.76L406.081 520.867Z" fill="#242424"/>
<path d="M522.334 424.52C520.801 424.64 519.481 424.774 518.388 424.894C517.508 425.014 516.801 425.12 516.254 425.24H515.761L515.441 425.414H515.267L510.054 463.107L528.627 462.107L522.334 424.52ZM498.654 407.827L539.561 405.44L539.574 405.6C539.681 405.827 539.841 406.32 540.081 407.08C540.761 409.6 541.841 413.8 543.321 419.707C547.894 438.187 555.494 469.667 566.134 514.174L540.867 518.694L533.441 483.427L506.494 485.174L498.921 516.48L470.814 517.587L498.654 407.827" fill="#242424"/>
<path d="M554.067 425.52L578.694 422.147L587.427 473.187L587.761 473.347L597.294 423.934L624.187 417.414L644.494 475.08L658.014 413.96L686.214 422.227L663.534 505.8L630.507 507.6L612.347 467.014L603.134 514.787L572.734 517.067L554.067 425.52" fill="#242424"/>
<path d="M695.947 491.987C696.387 491.987 697.321 492.094 698.747 492.294L700.881 492.44L703.347 492.747C708.067 493.24 712.067 493.48 715.361 493.44C726.094 493.227 731.934 490.267 732.867 484.56C734.001 477.534 732.414 472.28 728.107 468.813C726.334 467.413 723.961 466.12 720.987 464.947L716.867 463.507L712.574 462.24C704.881 459.907 699.441 457.333 696.227 454.507C691.254 450.067 688.827 443.573 688.961 435.013C689.267 422.08 695.654 413.533 708.107 409.347C716.841 406.413 728.681 405.747 743.601 407.347L743.827 429.867C742.827 429.774 741.627 429.613 740.201 429.413L738.054 429.107L735.921 428.8C732.081 428.174 729.174 427.773 727.201 427.573C720.507 427.307 717.121 429.307 717.067 433.587C716.987 436.774 720.307 439.854 727.014 442.854C736.374 447.147 743.934 452.12 749.694 457.76C756.881 465.027 760.521 473.04 760.614 481.813C760.734 494.08 754.374 503.96 741.507 511.427C728.547 518.894 714.041 520.907 698.014 517.454L695.947 491.987Z" fill="#242424"/>
</g>
<defs>
<clipPath id="clip0_4_526">
<rect width="1132" height="751" fill="white"/>
</clipPath>
</defs>
</svg>
