<svg width="1295" height="391" viewBox="0 0 1295 391" fill="none" xmlns="http://www.w3.org/2000/svg">
<path d="M102.885 274.623C79.2063 265.023 65.7557 242.29 62.541 206.41C58.929 166.797 73.4037 140.383 105.966 127.197C117.71 122.437 130.816 119.797 145.281 119.303C157.246 118.997 167.084 120.063 174.792 122.49L171.23 168.343L170.96 168.077C154.122 163.783 141.076 163.463 131.825 167.13C119.186 172.09 112.966 184.023 113.156 202.957C113.354 222.797 121.492 232.543 137.566 232.197C142.745 231.97 149.518 230.65 157.894 228.237L162.969 226.583L167.512 225.197C171.073 224.09 173.833 223.343 175.797 222.97L186.418 266.81C152.074 280.557 124.23 283.157 102.885 274.623" fill="#FFE3C2"/>
<path d="M269.012 138.156C266.511 138.356 264.368 138.57 262.587 138.756C261.157 138.956 260 139.143 259.109 139.33L258.305 139.343L257.772 139.61H257.504L249.007 201.063L279.272 199.423L269.012 138.156ZM230.418 110.943L297.108 107.063L297.11 107.33C297.289 107.69 297.566 108.49 297.938 109.73C299.052 113.836 300.816 120.69 303.236 130.316C310.68 160.436 323.077 211.756 340.418 284.303L299.222 291.676L287.124 234.183L243.204 237.036L230.851 288.076L185.042 289.876L230.418 110.943" fill="#FFE3C2"/>
<path d="M348.776 289.037L344.745 154.01L316.328 152.957L314.813 108.757L420.389 107.703L416.582 155.717L386.822 154.397L394.052 287.783L348.776 289.037" fill="#FFE3C2"/>
<path d="M453.848 103.89L450.754 169.836L432.009 171.103L424.372 104.183L453.848 103.89" fill="#FFE3C2"/>
<path d="M470.036 248.97C470.748 248.956 472.268 249.13 474.596 249.463L478.082 249.69L482.106 250.183C489.794 251.01 496.322 251.383 501.681 251.33C519.185 250.983 528.696 246.156 530.21 236.85C532.061 225.396 529.474 216.85 522.452 211.196C519.568 208.903 515.706 206.796 510.864 204.876L504.141 202.53L497.153 200.463C484.608 196.663 475.722 192.463 470.497 187.863C462.385 180.623 458.434 170.036 458.654 156.09C459.156 135.01 469.561 121.063 489.858 114.236C504.102 109.463 523.386 108.37 547.712 110.983L548.078 147.69C546.469 147.53 544.498 147.29 542.176 146.956L538.686 146.45L535.198 145.943C528.932 144.943 524.193 144.276 520.974 143.943C510.07 143.516 504.564 146.796 504.457 153.756C504.329 158.943 509.738 163.983 520.688 168.876C535.94 175.863 548.261 183.97 557.645 193.156C569.374 205.01 575.313 218.076 575.456 232.37C575.656 252.383 565.273 268.476 544.316 280.65C523.176 292.836 499.537 296.103 473.398 290.476L470.036 248.97" fill="#FFE3C2"/>
<path d="M694.577 192.863C703.008 196.357 710.049 194.943 715.706 188.623C720.83 183.037 723.521 175.33 723.782 165.503C724.22 155.677 721.997 147.743 717.113 141.717C711.684 134.797 704.158 132.557 694.534 134.97L694.577 192.863ZM653.738 289.477L656.702 103.463C688.604 95.8232 712.533 94.9565 728.496 100.863C750.726 108.863 762.018 130.103 762.362 164.583C762.621 190.477 754.762 208.437 738.784 218.41C732.745 222.223 725.624 224.797 717.421 226.13C711.537 227.263 704.929 227.69 697.602 227.397L698.489 289.29L653.738 289.477" fill="#FFE3C2"/>
<path d="M843.242 132.41C840.741 132.623 838.598 132.823 836.817 133.01C835.386 133.21 834.23 133.397 833.34 133.583L832.536 133.597L832.002 133.863L831.733 133.877L823.236 195.33L853.502 193.677L843.242 132.41ZM804.649 105.197L871.338 101.317L871.341 101.583C871.52 101.943 871.797 102.743 872.169 103.983C873.282 108.09 875.045 114.943 877.466 124.57C884.91 154.69 897.308 206.023 914.648 278.557L873.453 285.943L861.354 228.437L817.433 231.29L805.081 282.33L759.272 284.13L804.649 105.197" fill="#FFE3C2"/>
<path d="M894.981 134.036L935.124 128.556L949.356 211.756L949.894 212.01L965.434 131.463L1009.28 120.836L1042.37 214.836L1064.43 115.196L1110.39 128.676L1073.43 264.916L1019.59 267.863L989.989 201.69L974.956 279.57L925.416 283.276L894.981 134.036Z" fill="#FFE3C2"/>
<path d="M1126.27 242.41C1126.97 242.397 1128.49 242.57 1130.83 242.903L1134.31 243.13L1138.33 243.623C1146.03 244.45 1152.55 244.823 1157.91 244.77C1175.41 244.423 1184.92 239.583 1186.44 230.277C1188.29 218.837 1185.71 210.29 1178.68 204.637C1175.8 202.343 1171.93 200.237 1167.09 198.317L1160.37 195.97L1153.37 193.903C1140.84 190.103 1131.95 185.903 1126.72 181.303C1118.61 174.063 1114.67 163.463 1114.88 149.53C1115.39 128.45 1125.79 114.49 1146.08 107.677C1160.33 102.89 1179.61 101.81 1203.93 104.423L1204.31 141.13C1202.69 140.97 1200.72 140.73 1198.4 140.383L1194.92 139.89L1191.43 139.383C1185.16 138.37 1180.41 137.717 1177.2 137.383C1166.29 136.957 1160.79 140.223 1160.68 147.197C1160.56 152.383 1165.96 157.423 1176.92 162.303C1192.17 169.303 1204.49 177.397 1213.87 186.597C1225.6 198.45 1231.53 211.517 1231.68 225.81C1231.88 245.823 1221.51 261.917 1200.55 274.09C1179.4 286.263 1155.76 289.543 1129.63 283.917L1126.27 242.41" fill="#FFE3C2"/>
</svg>
